<svg width="42" height="42" viewBox="0 0 42 42" fill="none" xmlns="http://www.w3.org/2000/svg">
<circle cx="21" cy="21" r="21" fill="#F9C66B"/>
<path d="M17 27.7948C16.4696 27.7948 15.9609 27.5841 15.5858 27.209C15.2107 26.834 15 26.3253 15 25.7948V17.7948C15 17.2663 15.2092 16.7593 15.5819 16.3845C15.9546 16.0097 16.4605 15.7977 16.989 15.7948V15.0068C16.9872 14.7505 17.084 14.5033 17.2593 14.3162C17.4346 14.1292 17.675 14.0166 17.9309 14.0017C18.1868 13.9868 18.4387 14.0708 18.6345 14.2362C18.8302 14.4017 18.955 14.636 18.983 14.8908L18.989 15.0068V15.7948H23.017V15.0068C23.0152 14.7505 23.112 14.5033 23.2873 14.3162C23.4626 14.1292 23.703 14.0166 23.9589 14.0017C24.2148 13.9868 24.4667 14.0708 24.6625 14.2362C24.8582 14.4017 24.983 14.636 25.011 14.8908L25.017 15.0068V15.7958C25.5445 15.8003 26.0488 16.013 26.4202 16.3876C26.7916 16.7622 27 17.2683 27 17.7958V25.7958C27 26.3263 26.7893 26.835 26.4142 27.21C26.0391 27.5851 25.5304 27.7958 25 27.7958L17 27.7948ZM17 25.7948H25V19.6998H17V25.7948Z" fill="#2B2859"/>
</svg>
