<svg width="120" height="100" viewBox="0 0 120 100" fill="none" xmlns="http://www.w3.org/2000/svg">
<path d="M68 49.5H52C51.4696 49.5 50.9609 49.2893 50.5858 48.9142C50.2107 48.5391 50 48.0304 50 47.5V29.5C50 28.9696 50.2107 28.4609 50.5858 28.0858C50.9609 27.7107 51.4696 27.5 52 27.5H68C68.5304 27.5 69.0391 27.7107 69.4142 28.0858C69.7893 28.4609 70 28.9696 70 29.5V47.5C70 48.0304 69.7893 48.5391 69.4142 48.9142C69.0391 49.2893 68.5304 49.5 68 49.5Z" stroke="#2B2859" stroke-width="2"/>
<path d="M54.966 42.052C54.6761 42.052 54.3926 42.1379 54.1515 42.299C53.9105 42.4601 53.7226 42.6891 53.6116 42.957C53.5006 43.2248 53.4716 43.5196 53.5282 43.804C53.5847 44.0883 53.7244 44.3496 53.9294 44.5546C54.1344 44.7596 54.3956 44.8992 54.68 44.9558C54.9644 45.0124 55.2591 44.9833 55.527 44.8724C55.7949 44.7614 56.0238 44.5735 56.1849 44.3324C56.346 44.0914 56.432 43.8079 56.432 43.518C56.4315 43.1293 56.2768 42.7567 56.002 42.4819C55.7272 42.2071 55.3546 42.0525 54.966 42.052ZM58 42.518V44.518H67V42.518H58ZM54.966 37.035C54.676 37.035 54.3925 37.121 54.1514 37.2821C53.9103 37.4432 53.7224 37.6722 53.6115 37.9402C53.5006 38.2081 53.4716 38.5029 53.5282 38.7873C53.5849 39.0717 53.7246 39.333 53.9297 39.5379C54.1349 39.7429 54.3962 39.8825 54.6806 39.9389C54.9651 39.9954 55.2598 39.9662 55.5277 39.8551C55.7956 39.744 56.0245 39.5559 56.1854 39.3147C56.3464 39.0735 56.4322 38.79 56.432 38.5C56.4312 38.1115 56.2765 37.7392 56.0017 37.4646C55.7269 37.19 55.3545 37.0355 54.966 37.035ZM58 37.5V39.5H67V37.5H58ZM54.966 32.017C54.6761 32.017 54.3926 32.1029 54.1515 32.264C53.9105 32.4251 53.7226 32.6541 53.6116 32.922C53.5006 33.1898 53.4716 33.4846 53.5282 33.769C53.5847 34.0533 53.7244 34.3146 53.9294 34.5196C54.1344 34.7246 54.3956 34.8642 54.68 34.9208C54.9644 34.9774 55.2591 34.9483 55.527 34.8374C55.7949 34.7264 56.0238 34.5385 56.1849 34.2974C56.346 34.0564 56.432 33.7729 56.432 33.483C56.4315 33.0943 56.2768 32.7217 56.002 32.4469C55.7272 32.1721 55.3546 32.0175 54.966 32.017ZM58 32.483V34.483H67V32.483H58Z" fill="#2B2859"/>
<path d="M40.3398 65.4893C40.3398 67.0889 39.9342 68.3467 39.123 69.2627C38.3164 70.1787 37.193 70.6367 35.7529 70.6367C34.2809 70.6367 33.1439 70.1878 32.3418 69.29C31.5443 68.3877 31.1455 67.1162 31.1455 65.4756C31.1455 63.8486 31.5465 62.5885 32.3486 61.6953C33.1507 60.7975 34.29 60.3486 35.7666 60.3486C37.2021 60.3486 38.3232 60.8044 39.1299 61.7158C39.9365 62.6273 40.3398 63.8851 40.3398 65.4893ZM32.376 65.4893C32.376 66.8428 32.6631 67.8704 33.2373 68.5723C33.8161 69.2695 34.6546 69.6182 35.7529 69.6182C36.8604 69.6182 37.6966 69.2695 38.2617 68.5723C38.8268 67.875 39.1094 66.8473 39.1094 65.4893C39.1094 64.1449 38.8268 63.1263 38.2617 62.4336C37.7012 61.7363 36.8695 61.3877 35.7666 61.3877C34.6592 61.3877 33.8161 61.7386 33.2373 62.4404C32.6631 63.1377 32.376 64.154 32.376 65.4893ZM45.8906 70.6367C45.403 70.6367 44.9564 70.5479 44.5508 70.3701C44.1497 70.1878 43.8125 69.9098 43.5391 69.5361H43.457C43.5117 69.9736 43.5391 70.3883 43.5391 70.7803V73.8633H42.4043V63.0078H43.3271L43.4844 64.0332H43.5391C43.8307 63.623 44.1702 63.3268 44.5576 63.1445C44.945 62.9622 45.3893 62.8711 45.8906 62.8711C46.8841 62.8711 47.6497 63.2106 48.1875 63.8896C48.7298 64.5687 49.001 65.5212 49.001 66.7471C49.001 67.9775 48.7253 68.9346 48.1738 69.6182C47.627 70.2972 46.8659 70.6367 45.8906 70.6367ZM45.7266 63.835C44.9609 63.835 44.4072 64.0469 44.0654 64.4707C43.7236 64.8945 43.5482 65.569 43.5391 66.4941V66.7471C43.5391 67.7998 43.7145 68.554 44.0654 69.0098C44.4163 69.4609 44.9792 69.6865 45.7539 69.6865C46.401 69.6865 46.9069 69.4245 47.2715 68.9004C47.6406 68.3763 47.8252 67.654 47.8252 66.7334C47.8252 65.7992 47.6406 65.0837 47.2715 64.5869C46.9069 64.0856 46.3919 63.835 45.7266 63.835ZM54.4766 70.6367C53.9889 70.6367 53.5423 70.5479 53.1367 70.3701C52.7357 70.1878 52.3984 69.9098 52.125 69.5361H52.043C52.0977 69.9736 52.125 70.3883 52.125 70.7803V73.8633H50.9902V63.0078H51.9131L52.0703 64.0332H52.125C52.4167 63.623 52.7562 63.3268 53.1436 63.1445C53.5309 62.9622 53.9753 62.8711 54.4766 62.8711C55.4701 62.8711 56.2357 63.2106 56.7734 63.8896C57.3158 64.5687 57.5869 65.5212 57.5869 66.7471C57.5869 67.9775 57.3112 68.9346 56.7598 69.6182C56.2129 70.2972 55.4518 70.6367 54.4766 70.6367ZM54.3125 63.835C53.5469 63.835 52.9932 64.0469 52.6514 64.4707C52.3096 64.8945 52.1341 65.569 52.125 66.4941V66.7471C52.125 67.7998 52.3005 68.554 52.6514 69.0098C53.0023 69.4609 53.5651 69.6865 54.3398 69.6865C54.987 69.6865 55.4928 69.4245 55.8574 68.9004C56.2266 68.3763 56.4111 67.654 56.4111 66.7334C56.4111 65.7992 56.2266 65.0837 55.8574 64.5869C55.4928 64.0856 54.9779 63.835 54.3125 63.835ZM62.9941 62.8711C63.3268 62.8711 63.6253 62.8984 63.8896 62.9531L63.7324 64.0059C63.4225 63.9375 63.1491 63.9033 62.9121 63.9033C62.306 63.9033 61.7865 64.1494 61.3535 64.6416C60.9251 65.1338 60.7109 65.7467 60.7109 66.4805V70.5H59.5762V63.0078H60.5127L60.6426 64.3955H60.6973C60.9753 63.9079 61.3102 63.5319 61.7021 63.2676C62.0941 63.0033 62.5247 62.8711 62.9941 62.8711ZM68.4561 70.6367C67.3486 70.6367 66.4736 70.2995 65.8311 69.625C65.193 68.9505 64.874 68.014 64.874 66.8154C64.874 65.6077 65.1702 64.6484 65.7627 63.9375C66.3597 63.2266 67.1595 62.8711 68.1621 62.8711C69.1009 62.8711 69.8438 63.181 70.3906 63.8008C70.9375 64.416 71.2109 65.2295 71.2109 66.2412V66.959H66.0498C66.0726 67.8385 66.2936 68.5062 66.7129 68.9619C67.1367 69.4176 67.7314 69.6455 68.4971 69.6455C69.3037 69.6455 70.1012 69.4769 70.8896 69.1396V70.1514C70.4886 70.3245 70.1081 70.4476 69.748 70.5205C69.3926 70.598 68.9619 70.6367 68.4561 70.6367ZM68.1484 63.8213C67.5469 63.8213 67.0661 64.0173 66.7061 64.4092C66.3506 64.8011 66.141 65.3434 66.0771 66.0361H69.9941C69.9941 65.3206 69.8346 64.7738 69.5156 64.3955C69.1966 64.0127 68.7409 63.8213 68.1484 63.8213ZM75.5723 69.7002C75.7728 69.7002 75.9665 69.6865 76.1533 69.6592C76.3402 69.6273 76.4883 69.5954 76.5977 69.5635V70.4316C76.4746 70.4909 76.2923 70.5387 76.0508 70.5752C75.8138 70.6162 75.5996 70.6367 75.4082 70.6367C73.959 70.6367 73.2344 69.8734 73.2344 68.3467V63.8896H72.1611V63.3428L73.2344 62.8711L73.7129 61.2715H74.3691V63.0078H76.543V63.8896H74.3691V68.2988C74.3691 68.75 74.4762 69.0964 74.6904 69.3379C74.9046 69.5794 75.1986 69.7002 75.5723 69.7002ZM80.5215 69.7002C80.722 69.7002 80.9157 69.6865 81.1025 69.6592C81.2894 69.6273 81.4375 69.5954 81.5469 69.5635V70.4316C81.4238 70.4909 81.2415 70.5387 81 70.5752C80.763 70.6162 80.5488 70.6367 80.3574 70.6367C78.9082 70.6367 78.1836 69.8734 78.1836 68.3467V63.8896H77.1104V63.3428L78.1836 62.8711L78.6621 61.2715H79.3184V63.0078H81.4922V63.8896H79.3184V68.2988C79.3184 68.75 79.4255 69.0964 79.6396 69.3379C79.8538 69.5794 80.1478 69.7002 80.5215 69.7002ZM86.2158 70.6367C85.1084 70.6367 84.2334 70.2995 83.5908 69.625C82.9528 68.9505 82.6338 68.014 82.6338 66.8154C82.6338 65.6077 82.93 64.6484 83.5225 63.9375C84.1195 63.2266 84.9193 62.8711 85.9219 62.8711C86.8607 62.8711 87.6035 63.181 88.1504 63.8008C88.6973 64.416 88.9707 65.2295 88.9707 66.2412V66.959H83.8096C83.8324 67.8385 84.0534 68.5062 84.4727 68.9619C84.8965 69.4176 85.4912 69.6455 86.2568 69.6455C87.0635 69.6455 87.861 69.4769 88.6494 69.1396V70.1514C88.2484 70.3245 87.8678 70.4476 87.5078 70.5205C87.1523 70.598 86.7217 70.6367 86.2158 70.6367ZM85.9082 63.8213C85.3066 63.8213 84.8258 64.0173 84.4658 64.4092C84.1104 64.8011 83.9007 65.3434 83.8369 66.0361H87.7539C87.7539 65.3206 87.5944 64.7738 87.2754 64.3955C86.9564 64.0127 86.5007 63.8213 85.9082 63.8213Z" fill="#2B2859"/>
</svg>
