<svg width="120" height="100" viewBox="0 0 120 100" fill="none" xmlns="http://www.w3.org/2000/svg">
<path d="M69.5002 48V41.9803H51.0002V48H69.5002ZM69.5002 35.5197V29.5H51.0002V35.5197H69.5002ZM70.2699 50H50.2305C49.8919 50 49.5991 49.8789 49.3602 49.64C49.1214 49.4011 49.0002 49.1083 49.0002 48.7697V41.27C49.0002 40.9114 49.1214 40.6034 49.3602 40.3547C49.5997 40.1063 49.8925 39.9803 50.2305 39.9803H70.2699C70.608 39.9803 70.9008 40.1063 71.1402 40.3547C71.3791 40.6034 71.5002 40.9114 71.5002 41.27V48.7697C71.5002 49.1083 71.3791 49.4011 71.1402 49.64C70.9014 49.8789 70.6086 50 70.2699 50ZM70.2699 37.5197H50.2305C49.892 37.5197 49.5992 37.3886 49.3602 37.13C49.1214 36.8714 49.0002 36.5686 49.0002 36.23V28.7303C49.0002 28.3917 49.1214 28.0989 49.3602 27.86C49.5991 27.6211 49.8919 27.5 50.2305 27.5H70.2699C70.6086 27.5 70.9014 27.6211 71.1402 27.86C71.3791 28.0989 71.5002 28.3917 71.5002 28.7303V36.23C71.5002 36.5686 71.3791 36.8714 71.1402 37.13C70.9013 37.3886 70.6085 37.5197 70.2699 37.5197Z" fill="#2B2859"/>
<path d="M53.9803 35.0001C54.3109 35.0025 54.6385 34.9373 54.9429 34.8083C55.2473 34.6793 55.5221 34.4893 55.7503 34.2501C55.9895 34.0219 56.1795 33.7471 56.3085 33.4427C56.4375 33.1383 56.5027 32.8107 56.5003 32.4801C56.5045 32.1536 56.4399 31.83 56.3106 31.5302C56.1814 31.2304 55.9905 30.9612 55.7503 30.7401C55.5178 30.5086 55.2416 30.3257 54.9377 30.2021C54.6338 30.0784 54.3083 30.0166 53.9803 30.0201C53.6564 30.0149 53.335 30.0761 53.0357 30.1999C52.7365 30.3238 52.4657 30.5076 52.2403 30.7401C52.0078 30.9656 51.8239 31.2363 51.7001 31.5355C51.5763 31.8348 51.5151 32.1563 51.5203 32.4801C51.5168 32.8081 51.5786 33.1336 51.7022 33.4375C51.8259 33.7414 52.0088 34.0176 52.2403 34.2501C52.4613 34.4903 52.7306 34.6812 53.0304 34.8105C53.3302 34.9397 53.6538 35.0043 53.9803 35.0001Z" fill="#2B2859"/>
<path d="M53.9803 47.4802C54.3083 47.4837 54.6338 47.4218 54.9377 47.2982C55.2416 47.1746 55.5178 46.9917 55.7503 46.7602C55.9905 46.5391 56.1814 46.2699 56.3106 45.9701C56.4399 45.6703 56.5045 45.3466 56.5003 45.0202C56.5027 44.6896 56.4375 44.362 56.3085 44.0576C56.1795 43.7531 55.9895 43.4784 55.7503 43.2502C55.5221 43.0109 55.2473 42.821 54.9429 42.692C54.6385 42.563 54.3109 42.4977 53.9803 42.5002C53.6538 42.496 53.3302 42.5606 53.0304 42.6898C52.7306 42.819 52.4613 43.01 52.2403 43.2502C52.0088 43.4827 51.8259 43.7589 51.7022 44.0628C51.5786 44.3667 51.5168 44.6921 51.5203 45.0202C51.5151 45.344 51.5763 45.6655 51.7001 45.9647C51.8239 46.264 52.0078 46.5347 52.2403 46.7602C52.4657 46.9927 52.7365 47.1765 53.0357 47.3003C53.335 47.4242 53.6564 47.4854 53.9803 47.4802Z" fill="#2B2859"/>
<path d="M37.0312 65.4072C37.0312 67.057 36.5824 68.3193 35.6846 69.1943C34.7913 70.0648 33.5039 70.5 31.8223 70.5H29.0537V60.5059H32.1162C33.6702 60.5059 34.8779 60.9365 35.7393 61.7979C36.6006 62.6592 37.0312 63.8623 37.0312 65.4072ZM35.8008 65.4482C35.8008 64.1449 35.4727 63.1628 34.8164 62.502C34.1647 61.8411 33.194 61.5107 31.9043 61.5107H30.2158V69.4951H31.6309C33.0163 69.4951 34.0576 69.1556 34.7549 68.4766C35.4521 67.793 35.8008 66.7835 35.8008 65.4482ZM43.7031 70.5L43.4775 69.4336H43.4229C43.0492 69.903 42.6755 70.222 42.3018 70.3906C41.9326 70.5547 41.4701 70.6367 40.9141 70.6367C40.1712 70.6367 39.5879 70.4453 39.1641 70.0625C38.7448 69.6797 38.5352 69.1351 38.5352 68.4287C38.5352 66.9157 39.7451 66.1227 42.165 66.0498L43.4365 66.0088V65.5439C43.4365 64.9561 43.3089 64.5231 43.0537 64.2451C42.8031 63.9626 42.3997 63.8213 41.8438 63.8213C41.2194 63.8213 40.513 64.0127 39.7246 64.3955L39.376 63.5273C39.7451 63.3268 40.1484 63.1696 40.5859 63.0557C41.028 62.9417 41.4701 62.8848 41.9121 62.8848C42.8053 62.8848 43.4661 63.083 43.8945 63.4795C44.3275 63.876 44.5439 64.5117 44.5439 65.3867V70.5H43.7031ZM41.1396 69.7002C41.846 69.7002 42.3997 69.5065 42.8008 69.1191C43.2064 68.7318 43.4092 68.1895 43.4092 67.4922V66.8154L42.2744 66.8633C41.3721 66.8952 40.7204 67.0365 40.3193 67.2871C39.9229 67.5332 39.7246 67.9183 39.7246 68.4424C39.7246 68.8525 39.8477 69.1647 40.0938 69.3789C40.3444 69.5931 40.693 69.7002 41.1396 69.7002ZM51.7217 68.4561C51.7217 69.1533 51.4619 69.6911 50.9424 70.0693C50.4229 70.4476 49.6937 70.6367 48.7549 70.6367C47.7614 70.6367 46.9867 70.4795 46.4307 70.165V69.1123C46.7907 69.2946 47.1758 69.4382 47.5859 69.543C48.0007 69.6478 48.3994 69.7002 48.7822 69.7002C49.3747 69.7002 49.8304 69.6068 50.1494 69.4199C50.4684 69.2285 50.6279 68.9391 50.6279 68.5518C50.6279 68.2601 50.5003 68.0117 50.2451 67.8066C49.9945 67.597 49.5023 67.3509 48.7686 67.0684C48.0713 66.8086 47.5745 66.583 47.2783 66.3916C46.9867 66.1956 46.7679 65.9746 46.6221 65.7285C46.4808 65.4824 46.4102 65.1885 46.4102 64.8467C46.4102 64.236 46.6585 63.7552 47.1553 63.4043C47.652 63.0488 48.3333 62.8711 49.1992 62.8711C50.0059 62.8711 50.7943 63.0352 51.5645 63.3633L51.1611 64.2861C50.4092 63.9762 49.7279 63.8213 49.1172 63.8213C48.5794 63.8213 48.1738 63.9056 47.9004 64.0742C47.627 64.2428 47.4902 64.4753 47.4902 64.7715C47.4902 64.972 47.5404 65.1429 47.6406 65.2842C47.7454 65.4255 47.9118 65.5599 48.1396 65.6875C48.3675 65.8151 48.805 65.9997 49.4521 66.2412C50.3408 66.5648 50.9401 66.8906 51.25 67.2188C51.5645 67.5469 51.7217 67.9593 51.7217 68.4561ZM58.7012 70.5V65.6533C58.7012 65.0426 58.5622 64.5869 58.2842 64.2861C58.0062 63.9854 57.571 63.835 56.9785 63.835C56.1901 63.835 55.6136 64.0492 55.249 64.4775C54.889 64.9059 54.709 65.6077 54.709 66.583V70.5H53.5742V59.8633H54.709V63.083C54.709 63.4704 54.6908 63.7917 54.6543 64.0469H54.7227C54.946 63.6868 55.2627 63.4043 55.6729 63.1992C56.0876 62.9896 56.5592 62.8848 57.0879 62.8848C58.0039 62.8848 58.6898 63.1035 59.1455 63.541C59.6058 63.974 59.8359 64.6644 59.8359 65.6123V70.5H58.7012ZM65.6602 62.8848C66.6445 62.8848 67.4079 63.222 67.9502 63.8965C68.4971 64.5664 68.7705 65.5166 68.7705 66.7471C68.7705 67.9775 68.4948 68.9346 67.9434 69.6182C67.3965 70.2972 66.6354 70.6367 65.6602 70.6367C65.1725 70.6367 64.7259 70.5479 64.3203 70.3701C63.9193 70.1878 63.582 69.9098 63.3086 69.5361H63.2266L62.9873 70.5H62.1738V59.8633H63.3086V62.4473C63.3086 63.026 63.2904 63.5456 63.2539 64.0059H63.3086C63.8372 63.2585 64.6211 62.8848 65.6602 62.8848ZM65.4961 63.835C64.7214 63.835 64.1631 64.0583 63.8213 64.5049C63.4795 64.9469 63.3086 65.6943 63.3086 66.7471C63.3086 67.7998 63.484 68.554 63.835 69.0098C64.1859 69.4609 64.7487 69.6865 65.5234 69.6865C66.2207 69.6865 66.7402 69.4336 67.082 68.9277C67.4238 68.4173 67.5947 67.6859 67.5947 66.7334C67.5947 65.7581 67.4238 65.0312 67.082 64.5527C66.7402 64.0742 66.2116 63.835 65.4961 63.835ZM77.2266 66.7471C77.2266 67.9684 76.9189 68.9232 76.3037 69.6113C75.6885 70.2949 74.8385 70.6367 73.7539 70.6367C73.084 70.6367 72.4893 70.4795 71.9697 70.165C71.4502 69.8506 71.0492 69.3994 70.7666 68.8115C70.484 68.2236 70.3428 67.5355 70.3428 66.7471C70.3428 65.5257 70.6481 64.5755 71.2588 63.8965C71.8695 63.2129 72.7171 62.8711 73.8018 62.8711C74.8499 62.8711 75.6816 63.2197 76.2969 63.917C76.9167 64.6143 77.2266 65.5576 77.2266 66.7471ZM71.5186 66.7471C71.5186 67.7041 71.71 68.4333 72.0928 68.9346C72.4756 69.4359 73.0384 69.6865 73.7812 69.6865C74.5241 69.6865 75.0869 69.4382 75.4697 68.9414C75.8571 68.4401 76.0508 67.7087 76.0508 66.7471C76.0508 65.7946 75.8571 65.0723 75.4697 64.5801C75.0869 64.0833 74.5195 63.835 73.7676 63.835C73.0247 63.835 72.4642 64.0788 72.0859 64.5664C71.7077 65.054 71.5186 65.7809 71.5186 66.7471ZM82.6406 62.8711C82.9733 62.8711 83.2718 62.8984 83.5361 62.9531L83.3789 64.0059C83.069 63.9375 82.7956 63.9033 82.5586 63.9033C81.9525 63.9033 81.4329 64.1494 81 64.6416C80.5716 65.1338 80.3574 65.7467 80.3574 66.4805V70.5H79.2227V63.0078H80.1592L80.2891 64.3955H80.3438C80.6217 63.9079 80.9567 63.5319 81.3486 63.2676C81.7406 63.0033 82.1712 62.8711 82.6406 62.8711ZM90.0371 69.4951H89.9756C89.4515 70.2562 88.6676 70.6367 87.624 70.6367C86.6442 70.6367 85.8809 70.3018 85.334 69.6318C84.7917 68.9619 84.5205 68.0094 84.5205 66.7744C84.5205 65.5394 84.7939 64.5801 85.3408 63.8965C85.8877 63.2129 86.6488 62.8711 87.624 62.8711C88.6403 62.8711 89.4196 63.2402 89.9619 63.9785H90.0508L90.0029 63.4385L89.9756 62.9121V59.8633H91.1104V70.5H90.1875L90.0371 69.4951ZM87.7676 69.6865C88.5423 69.6865 89.1029 69.4769 89.4492 69.0576C89.8001 68.6338 89.9756 67.9525 89.9756 67.0137V66.7744C89.9756 65.7126 89.7979 64.9561 89.4424 64.5049C89.0915 64.0492 88.5286 63.8213 87.7539 63.8213C87.0885 63.8213 86.5781 64.0811 86.2227 64.6006C85.8717 65.1156 85.6963 65.8447 85.6963 66.7881C85.6963 67.7451 85.8717 68.4674 86.2227 68.9551C86.5736 69.4427 87.0885 69.6865 87.7676 69.6865Z" fill="#2B2859"/>
</svg>
