<svg width="20" height="20" viewBox="0 0 20 20" fill="none" xmlns="http://www.w3.org/2000/svg">
<path fill-rule="evenodd" clip-rule="evenodd" d="M8.5 2.80005C7.56112 2.80005 6.8 3.56116 6.8 4.50005V5.60005H3.7C3.3134 5.60005 3 5.91345 3 6.30005C3 6.68665 3.3134 7.00005 3.7 7.00005H4.3V16C4.3 16.9389 5.06112 17.7 6 17.7H14C14.9389 17.7 15.7 16.9389 15.7 16V7.00005H16.3C16.6866 7.00005 17 6.68665 17 6.30005C17 5.91345 16.6866 5.60005 16.3 5.60005H13.2V4.50005C13.2 3.56116 12.4389 2.80005 11.5 2.80005H8.5ZM11.8 5.60005V4.50005C11.8 4.33436 11.6657 4.20005 11.5 4.20005H8.5C8.33431 4.20005 8.2 4.33436 8.2 4.50005V5.60005H11.8ZM5.7 7.00005H14.3V16C14.3 16.1657 14.1657 16.3 14 16.3H6C5.83431 16.3 5.7 16.1657 5.7 16V7.00005Z" fill="#2B2859"/>
</svg>
