<svg width="15" height="15" viewBox="0 0 15 15" fill="none" xmlns="http://www.w3.org/2000/svg">
<path d="M4.80022 4.34568L6.81822 2.32782V10.6817C6.81822 11.0583 7.12349 11.3635 7.50004 11.3635C7.87659 11.3635 8.18186 11.0583 8.18186 10.6817V2.32786L10.1997 4.34568C10.3328 4.47882 10.5073 4.54541 10.6818 4.54541C10.8563 4.54541 11.0308 4.47886 11.1639 4.34568C11.4302 4.07941 11.4302 3.64773 11.1639 3.38145L7.98231 0.199818C7.96631 0.183864 7.94954 0.168773 7.93213 0.154455C7.92459 0.148273 7.91663 0.142909 7.90895 0.137136C7.89886 0.129545 7.88899 0.121818 7.87849 0.114773C7.86909 0.108455 7.85931 0.103 7.84963 0.0972273C7.84022 0.0915455 7.83099 0.0856818 7.82127 0.0804546C7.8114 0.0751818 7.80131 0.0707727 7.79122 0.066C7.78109 0.0612273 7.77118 0.0561818 7.76077 0.0518636C7.75104 0.0478636 7.74113 0.0445909 7.73127 0.0410454C7.72018 0.0370454 7.70922 0.0327727 7.69781 0.0293182C7.68799 0.0263637 7.67804 0.0242273 7.66818 0.0217273C7.65654 0.0187727 7.64499 0.0155 7.63318 0.0131363C7.62181 0.0109091 7.61031 0.0095909 7.59886 0.00790908C7.58836 0.00636363 7.57795 0.00440911 7.56727 0.00336365C7.54627 0.0013182 7.52522 0.000318169 7.50413 0.000181805C7.50277 0.000181805 7.50145 0 7.50009 0C7.49877 0 7.4974 0.000181805 7.49609 0.000181805C7.47499 0.000272714 7.4539 0.0013182 7.43286 0.00336365C7.42245 0.00440911 7.41227 0.00631818 7.40195 0.00781818C7.39022 0.0095 7.37849 0.0108636 7.3669 0.0131818C7.35536 0.0154545 7.34418 0.0186363 7.33286 0.0215C7.32259 0.0240909 7.31231 0.0263637 7.30213 0.0294091C7.29118 0.0327273 7.28049 0.0368636 7.26977 0.0407273C7.25954 0.0444091 7.24922 0.0477727 7.23913 0.0519545C7.22913 0.0560909 7.21959 0.0609546 7.20986 0.0655455C7.1994 0.0704546 7.18886 0.0751364 7.17859 0.0805909C7.16931 0.0855454 7.16059 0.0911818 7.15154 0.0965454C7.1414 0.102545 7.13122 0.108273 7.12136 0.114864C7.11149 0.121455 7.10227 0.128818 7.09277 0.135864C7.0844 0.142091 7.0759 0.147864 7.06781 0.154545C7.05122 0.168136 7.03536 0.182545 7.02013 0.197591C7.0194 0.198318 7.01863 0.198909 7.01786 0.199636L3.83604 3.38141C3.56981 3.64768 3.56977 4.07936 3.83604 4.34564C4.10227 4.61195 4.53399 4.61186 4.80022 4.34568Z" fill="#005688"/>
<path d="M14.3182 6.81836C13.9416 6.81836 13.6364 7.12363 13.6364 7.50018V12.7275H1.36364V7.50018C1.36364 7.12363 1.05836 6.81836 0.681818 6.81836C0.305273 6.81836 0 7.12363 0 7.50018V13.4093C0 13.7858 0.305273 14.0911 0.681818 14.0911H14.3182C14.6947 14.0911 15 13.7858 15 13.4093V7.50018C15 7.12363 14.6947 6.81836 14.3182 6.81836Z" fill="#005688"/>
</svg>
