<svg width="42" height="42" viewBox="0 0 42 42" fill="none" xmlns="http://www.w3.org/2000/svg">
<circle cx="21" cy="21" r="21" fill="#F9C66B"/>
<path d="M18.1639 18.3457L20.1819 16.3278V22.6817C20.1819 23.0583 20.4871 23.3635 20.8637 23.3635C21.2402 23.3635 21.5455 23.0583 21.5455 22.6817V16.3279L23.5633 18.3457C23.6965 18.4788 23.871 18.5454 24.0454 18.5454C24.2199 18.5454 24.3944 18.4789 24.5276 18.3457C24.7938 18.0794 24.7938 17.6477 24.5276 17.3815L21.346 14.1998C21.33 14.1839 21.3132 14.1688 21.2958 14.1545C21.2882 14.1483 21.2803 14.1429 21.2726 14.1371C21.2625 14.1295 21.2526 14.1218 21.2421 14.1148C21.2327 14.1085 21.223 14.103 21.2133 14.0972C21.2039 14.0915 21.1946 14.0857 21.1849 14.0805C21.1751 14.0752 21.165 14.0708 21.1549 14.066C21.1447 14.0612 21.1348 14.0562 21.1244 14.0519C21.1147 14.0479 21.1048 14.0446 21.0949 14.041C21.0838 14.037 21.0729 14.0328 21.0615 14.0293C21.0516 14.0264 21.0417 14.0242 21.0318 14.0217C21.0202 14.0188 21.0086 14.0155 20.9968 14.0131C20.9855 14.0109 20.974 14.0096 20.9625 14.0079C20.952 14.0064 20.9416 14.0044 20.9309 14.0034C20.9099 14.0013 20.8889 14.0003 20.8678 14.0002L20.8637 14L20.8597 14.0002C20.8386 14.0003 20.8176 14.0013 20.7965 14.0034C20.7861 14.0044 20.7759 14.0063 20.7656 14.0078C20.7539 14.0095 20.7421 14.0109 20.7306 14.0132C20.719 14.0155 20.7078 14.0186 20.6965 14.0215C20.6862 14.0241 20.676 14.0264 20.6658 14.0294C20.6548 14.0327 20.6441 14.0369 20.6334 14.0407C20.6232 14.0444 20.6129 14.0478 20.6028 14.052C20.5928 14.0561 20.5832 14.061 20.5735 14.0655C20.5631 14.0705 20.5525 14.0751 20.5422 14.0806C20.533 14.0855 20.5242 14.0912 20.5152 14.0965C20.5051 14.1025 20.4949 14.1083 20.485 14.1149C20.4751 14.1215 20.4659 14.1288 20.4564 14.1359C20.4481 14.1421 20.4396 14.1479 20.4315 14.1545C20.4149 14.1681 20.399 14.1825 20.3838 14.1976L20.3815 14.1996L17.1997 17.3814C16.9335 17.6477 16.9334 18.0794 17.1997 18.3456C17.4659 18.612 17.8976 18.6119 18.1639 18.3457Z" fill="#2B2859" stroke="#2B2859" stroke-width="0.5"/>
<path d="M27.3636 20.8182C27.0122 20.8182 26.7273 21.1235 26.7273 21.5001V25.7273H15.2727V21.5001C15.2727 21.1235 14.9878 20.8182 14.6364 20.8182C14.2849 20.8182 14 21.1235 14 21.5001V26.4091C14 26.7857 14.2849 27.091 14.6364 27.091H27.3636C27.7151 27.091 28 26.7857 28 26.4091V21.5001C28 21.1235 27.7151 20.8182 27.3636 20.8182Z" fill="#2B2859" stroke="#2B2859" stroke-width="0.5"/>
</svg>
