<svg width="14" height="14" viewBox="0 0 14 14" fill="none" xmlns="http://www.w3.org/2000/svg">
<path fill-rule="evenodd" clip-rule="evenodd" d="M12.1476 0.497918C11.4837 -0.165973 10.4073 -0.165973 9.7434 0.497918L0.37797 9.86335L0 13.9737L4.11035 13.5957L13.4758 4.2303C14.1397 3.56641 14.1397 2.49003 13.4758 1.82614L12.1476 0.497918ZM10.7333 1.48787C10.8505 1.37071 11.0405 1.37071 11.1576 1.48787L12.4858 2.81609C12.603 2.93324 12.603 3.12319 12.4858 3.24035L11.3551 4.37105L9.60265 2.61857L10.7333 1.48787ZM8.6127 3.60852L1.72575 10.4955L1.54828 12.4254L3.47823 12.248L10.3652 5.361L8.6127 3.60852Z" fill="#2B2859"/>
</svg>
