<svg width="14" height="18" viewBox="0 0 14 18" fill="none" xmlns="http://www.w3.org/2000/svg">
<path fill-rule="evenodd" clip-rule="evenodd" d="M1.7 1.4C1.53431 1.4 1.4 1.53431 1.4 1.7V15.7C1.4 15.8657 1.53431 16 1.7 16H11.7C11.8657 16 12 15.8657 12 15.7V5.4H9.7C8.76112 5.4 8 4.63888 8 3.7V1.4H1.7ZM9.4 2.38995L11.0101 4H9.7C9.53431 4 9.4 3.86569 9.4 3.7V2.38995ZM0 1.7C0 0.761116 0.761116 0 1.7 0H8.28579C8.73665 0 9.16906 0.179107 9.48787 0.497919L12.9021 3.91213C13.2209 4.23094 13.4 4.66335 13.4 5.11421V15.7C13.4 16.6389 12.6389 17.4 11.7 17.4H1.7C0.761116 17.4 0 16.6389 0 15.7V1.7ZM3.4 6.30001C3.0134 6.30001 2.7 6.61341 2.7 7.00001C2.7 7.38661 3.0134 7.70001 3.4 7.70001L10 7.70001C10.3866 7.70001 10.7 7.38661 10.7 7.00001C10.7 6.61341 10.3866 6.30001 10 6.30001L3.4 6.30001ZM2.7 10C2.7 9.61341 3.0134 9.30001 3.4 9.30001H10C10.3866 9.30001 10.7 9.61341 10.7 10C10.7 10.3866 10.3866 10.7 10 10.7L3.4 10.7C3.0134 10.7 2.7 10.3866 2.7 10ZM3.4 12.3C3.0134 12.3 2.7 12.6134 2.7 13C2.7 13.3866 3.0134 13.7 3.4 13.7L10 13.7C10.3866 13.7 10.7 13.3866 10.7 13C10.7 12.6134 10.3866 12.3 10 12.3H3.4Z" fill="#2B2859"/>
</svg>
