<svg width="127" height="65" viewBox="0 0 127 65" fill="none" xmlns="http://www.w3.org/2000/svg">
<g clip-path="url(#clip0)">
<path d="M43.1786 14.4351L42.2922 13.8864C40.9416 13 39.5065 12.2403 37.987 11.6071C37.3539 11.3539 36.7208 11.1006 36.0877 10.8896C34.5682 10.3831 32.9643 9.96104 31.4026 9.70779C30.7273 9.62338 30.052 9.53896 29.3344 9.45455C27.7305 9.32792 26.0844 9.32792 24.4805 9.45455C23.8052 9.49675 23.0877 9.58117 22.4123 9.70779C20.8085 9.96104 19.2468 10.3409 17.6851 10.8896C17.052 11.1006 16.4188 11.3539 15.7857 11.6071C14.3085 12.2403 12.8734 13 11.4805 13.8864L10.5942 14.4351L6.24677 6.12013L7.00651 5.65584C8.48378 4.72727 10.0033 3.92532 11.5649 3.25L12.3669 2.87013L13.9286 5.86688C14.3929 5.69805 14.8149 5.52922 15.2792 5.36039L14.4773 2.06818L15.3214 1.77273C16.9675 1.26623 18.6136 0.844156 20.302 0.548701L21.1883 0.37987L21.9903 3.67208L22.2435 3.62987C22.6234 3.58766 23.0455 3.54545 23.4253 3.50325V0.126623L24.3117 0.0844156C25.1559 0.0422078 26.0422 0 26.8864 0C27.7305 0 28.6169 0.0422078 29.4611 0.0844156L30.3474 0.126623V3.50325C30.8117 3.54545 31.276 3.58766 31.7825 3.67208L32.5844 0.37987L33.4708 0.548701C35.1591 0.844156 36.8474 1.26623 38.4513 1.77273L39.2955 2.06818L38.4935 5.36039C38.9578 5.52922 39.3799 5.69805 39.8442 5.86688L41.4059 2.87013L42.2078 3.25C43.7695 3.96753 45.289 4.76948 46.7663 5.65584L47.526 6.12013L43.1786 14.4351ZM8.77923 6.83766L11.3539 11.7338C12.5357 11.0162 13.7598 10.4253 15.026 9.87662H15.0682C15.7435 9.58117 16.4188 9.32792 17.0942 9.11688C18.7403 8.56818 20.4286 8.1039 22.1169 7.85065C22.8344 7.72403 23.552 7.63961 24.3117 7.5974C26.0422 7.47078 27.7727 7.47078 29.5033 7.5974C30.2208 7.68182 30.9805 7.76623 31.6981 7.85065C33.3864 8.1039 35.0747 8.52597 36.7208 9.07468C37.3961 9.32792 38.0714 9.58117 38.7468 9.83442C40.013 10.3831 41.237 11.0162 42.4611 11.6916L45.0357 6.79545C44.1494 6.28896 43.2208 5.78247 42.2922 5.36039L40.7305 8.31494L39.9286 7.97727L39.5909 7.85065C38.789 7.51299 37.9448 7.17532 37.1007 6.92208L36.2565 6.62662L37.0585 3.37662C36.0455 3.08117 35.0747 2.82792 34.0617 2.61688L33.2598 5.86688L32.3734 5.74026C31.3604 5.57143 30.3474 5.44481 29.3766 5.36039L28.4903 5.27597V1.94156C27.4773 1.89935 26.4221 1.89935 25.4091 1.94156V5.27597L24.5227 5.36039C23.8474 5.4026 23.2143 5.48701 22.5812 5.57143C22.2435 5.61364 21.8636 5.65584 21.526 5.74026L20.6396 5.86688L19.8377 2.61688C18.8247 2.82792 17.8117 3.08117 16.8409 3.37662L17.6429 6.62662L16.7987 6.92208C15.9546 7.21753 15.1104 7.51299 14.3085 7.85065L13.9708 7.97727L13.1688 8.31494L11.6072 5.36039C10.5942 5.78247 9.6656 6.28896 8.77923 6.83766Z" fill="#2A2859"/>
<path d="M26.8864 65C12.0292 65 0 52.9708 0 38.1559C0 23.341 12.0292 11.2695 26.8442 11.2695C41.6591 11.2695 53.7305 23.2988 53.7305 38.1137C53.7305 45.2468 50.9026 52.0845 45.8799 57.1494C40.8571 62.1721 33.9773 65 26.8864 65ZM26.8864 13.2533C13.1266 13.2533 1.98377 24.3962 1.98377 38.1137C1.98377 51.8312 13.1266 63.0163 26.8442 63.0163C40.6039 63.0163 51.7467 51.8734 51.7467 38.1559C51.7467 31.5715 49.1299 25.2403 44.4448 20.5552C39.8019 15.8702 33.4708 13.2111 26.8864 13.2533Z" fill="#2A2859"/>
<path d="M21.6948 30.474C19.5844 27.6461 20.1753 23.5942 23.0033 21.4838C25.8312 19.3734 29.8831 19.9643 31.9935 22.7922C33.6818 25.0714 33.6818 28.1948 31.9935 30.474L33.4286 31.5292C34.4838 30.1364 35.0747 28.4059 35.0747 26.6331C35.0747 22.1169 31.4026 18.4448 26.8864 18.4448C22.3701 18.4448 18.6981 22.1169 18.6981 26.6331C18.6981 28.4059 19.289 30.1364 20.3442 31.5292L21.6948 30.474Z" fill="#2A2859"/>
<path d="M26.8442 32.4155C28.6169 32.4155 30.052 30.9804 30.052 29.2077V28.87H31.1072V26.844C31.1072 24.4804 29.2078 22.5811 26.8442 22.5811C24.4805 22.5811 22.5812 24.4804 22.5812 26.844V28.87H23.6364V29.2077C23.6364 30.9804 25.0714 32.4155 26.8442 32.4155ZM24.3539 26.8862C24.3539 25.4934 25.4513 24.396 26.8442 24.396C28.237 24.396 29.3344 25.4934 29.3344 26.8862V28.9122H28.5747V29.2499C28.6169 30.2207 27.8994 31.0226 26.9286 31.0648C25.9578 31.107 25.1559 30.3895 25.1136 29.4187C25.1136 29.3765 25.1136 29.2921 25.1136 29.2499V28.9122H24.3539V26.8862Z" fill="#2A2859"/>
<path d="M10.9741 39.3376H8.526V41.8279H10.9741V39.3376Z" fill="#2A2859"/>
<path d="M46.7241 37.4382V38.7467H47.9903L44.5715 42.1655V36.172L45.4578 37.0584L46.3864 36.1298L43.8961 33.6395L41.4059 36.1298L42.3344 37.0584L43.2208 36.172V42.1233L39.802 38.7045H41.026V37.396H37.5228V40.9415H38.8312V39.6753L41.4903 42.3766H36.0877L35.539 41.8701L35.0747 37.4805C35.0325 37.2272 34.7793 34.9902 32.9221 34.0194H32.8799L30.9806 33.2597L30.6851 33.1331L30.3896 33.2175C29.2078 33.5129 28.026 33.6395 26.8442 33.5973C25.6624 33.6395 24.4383 33.5129 23.2987 33.2175L23.0033 33.1331L20.8085 33.9772H20.7663C18.9091 34.948 18.6137 37.185 18.6137 37.4382L18.1072 41.9967L17.6851 42.3344H15.828C15.9968 41.7434 16.0812 41.1525 16.0812 40.5616C16.0812 37.0584 13.2111 34.2305 9.70782 34.2727C6.20458 34.2727 3.37665 37.1428 3.41886 40.646C3.41886 43.7694 5.69808 46.3863 8.77925 46.8928H8.86367C9.0325 46.935 9.20133 46.935 9.37016 46.935L17.6007 47.7792C17.3052 50.5649 16.7565 53.3084 15.9546 56.0097L16.7987 56.3051L17.6429 56.5584C18.487 53.7305 19.078 50.8181 19.3734 47.9058L21.2306 46.3441L20.9351 57.8246L21.6948 57.9512C25.1559 58.5421 28.7013 58.5421 32.2046 57.9512L32.9643 57.8246L32.6689 46.3863L34.526 47.948C34.8215 50.8603 35.4124 53.7727 36.2565 56.6006L37.9448 56.0519C37.1429 53.3506 36.5942 50.6071 36.2987 47.8214L44.5715 47.0616V44.1915L48.9611 39.8019V41.0681H50.2695V37.5649L46.7241 37.4382ZM26.8442 35.4123C28.1104 35.4545 29.3767 35.2857 30.6429 35.0324L32.1624 35.6233C33.1754 36.172 33.3442 37.6493 33.3442 37.6493L33.7241 41.1103H31.5715C30.7273 41.1103 29.8409 40.8993 29.1234 40.435C28.5747 40.0129 28.0682 39.5486 27.6461 38.9999L24.6072 35.2857C25.3669 35.3701 26.1267 35.4123 26.8442 35.4123ZM9.75003 45.1623H9.53899L9.07471 45.1201C6.58445 44.7402 4.85393 42.3766 5.27601 39.8863C5.65588 37.396 8.01951 35.6655 10.5098 36.0876C13 36.4675 14.7306 38.8311 14.3085 41.3214C13.9286 43.5162 11.987 45.1623 9.75003 45.1623ZM21.2728 43.9382L18.7403 46.0908L13.6754 45.5844C14.1818 45.1623 14.6461 44.698 15.026 44.1493H18.3604L21.315 41.659L21.2728 43.9382ZM21.3994 39.2954L20.0909 40.3928L20.3864 37.6915V37.6493C20.3864 37.6493 20.513 36.172 21.5682 35.6233L22.4124 35.2857L23.9318 37.1428L21.3994 39.2954ZM26.8864 56.6006C25.4935 56.6006 24.1007 56.5162 22.75 56.3051L22.8344 52.5486L23.1299 40.1395L25.0293 38.5357L26.2955 40.0973C26.8442 40.8149 27.5195 41.448 28.237 41.9545C28.9968 42.4188 29.8832 42.7142 30.7695 42.8408L31.1072 56.3051C29.7143 56.474 28.2793 56.5584 26.8864 56.6006ZM42.7987 45.3733L35.1591 46.0908L31.3604 42.8831H31.6559H34.1461L35.5812 44.1493H42.8409L42.7987 45.3733Z" fill="#2A2859"/>
<path d="M68.7565 36.9318C68.7565 30.3896 72.8928 26.3799 77.9578 26.3799C83.0227 26.3799 87.1591 30.3896 87.1591 36.9318C87.1591 43.7273 83.0227 47.7792 77.9578 47.7792C72.8928 47.7792 68.7565 43.7273 68.7565 36.9318ZM84.5422 36.9318C84.5422 31.276 81.6298 28.7435 77.9578 28.7435C74.2857 28.7435 71.3734 31.276 71.3734 36.9318C71.3734 42.5877 74.4123 45.4156 77.9578 45.4156C81.5032 45.4156 84.5422 42.5877 84.5422 36.9318Z" fill="#2A2859"/>
<path d="M95.8961 32.2891C98.6818 32.2891 100.708 33.5131 101.468 35.4969L99.6104 36.4254C98.9773 35.117 97.6266 34.3572 95.8117 34.3572C93.9123 34.3572 92.6039 35.117 92.6039 36.3832C92.6039 37.4806 93.3214 38.1137 94.9253 38.4936L97.0779 38.9157C100.328 39.5488 101.89 41.0261 101.89 43.2631C101.89 45.9644 99.526 47.7793 96.0227 47.7793C92.9838 47.7793 90.789 46.5975 89.7338 44.4027L91.5909 43.4319C92.3506 44.9092 93.8279 45.7534 95.9383 45.7534C98.0487 45.7534 99.526 44.8248 99.526 43.3897C99.526 42.1657 98.8084 41.4482 97.0779 41.1105L94.5032 40.604C91.7175 40.0553 90.2403 38.6202 90.2403 36.552C90.2825 34.104 92.6039 32.2891 95.8961 32.2891Z" fill="#2A2859"/>
<path d="M109.36 47.6948C106.828 47.6948 105.604 46.1331 105.604 43.7272V26.6753H108.052V43.6428C108.052 44.9513 108.769 45.5844 109.951 45.5844C110.247 45.5844 110.542 45.5422 110.838 45.4578V47.5681C110.373 47.6104 109.867 47.6948 109.36 47.6948Z" fill="#2A2859"/>
<path d="M112.906 40.0131C112.906 35.328 115.945 32.2891 119.786 32.2891C123.627 32.2891 126.623 35.328 126.623 40.0131C126.623 44.7404 123.542 47.8215 119.786 47.8215C116.029 47.8215 112.906 44.7404 112.906 40.0131ZM124.091 40.0131C124.091 36.2144 122.107 34.3995 119.786 34.3995C117.464 34.3995 115.438 36.1722 115.438 40.0131C115.438 43.854 117.38 45.7111 119.786 45.7111C122.192 45.7111 124.091 43.8118 124.091 40.0131Z" fill="#2A2859"/>
</g>
<defs>
<clipPath id="clip0">
<rect width="126.623" height="65" fill="white"/>
</clipPath>
</defs>
</svg>
