<svg width="120" height="100" viewBox="0 0 120 100" fill="none" xmlns="http://www.w3.org/2000/svg">
<path d="M60 40C66.0751 40 71 35.0751 71 29C71 22.9249 66.0751 18 60 18C53.9249 18 49 22.9249 49 29C49 35.0751 53.9249 40 60 40Z" stroke="#2B2859" stroke-width="2" stroke-miterlimit="10"/>
<path d="M60.282 32.7331C60.1087 32.5598 60.005 32.329 59.9906 32.0844C59.9762 31.8398 60.0522 31.5984 60.204 31.4061L60.282 31.3191L61.61 29.9901H55.572C55.3157 29.9918 55.0685 29.895 54.8814 29.7198C54.6944 29.5445 54.5818 29.3041 54.5669 29.0482C54.552 28.7922 54.6359 28.5404 54.8014 28.3446C54.9669 28.1488 55.2012 28.024 55.456 27.9961L55.572 27.9901H61.59L60.282 26.6811C60.1085 26.508 60.0047 26.2772 59.9901 26.0326C59.9755 25.788 60.0513 25.5465 60.203 25.3541L60.282 25.2671C60.4552 25.094 60.6858 24.9905 60.9302 24.9761C61.1746 24.9617 61.4158 25.0375 61.608 25.1891L61.695 25.2661L65.428 28.9991L61.696 32.7331C61.5085 32.9205 61.2542 33.0258 60.989 33.0258C60.7239 33.0258 60.4695 32.9205 60.282 32.7331Z" fill="#2B2859"/>
<path d="M41.1396 55.9072C41.1396 57.557 40.6908 58.8193 39.793 59.6943C38.8997 60.5648 37.6123 61 35.9307 61H33.1621V51.0059H36.2246C37.7786 51.0059 38.9863 51.4365 39.8477 52.2979C40.709 53.1592 41.1396 54.3623 41.1396 55.9072ZM39.9092 55.9482C39.9092 54.6449 39.5811 53.6628 38.9248 53.002C38.2731 52.3411 37.3024 52.0107 36.0127 52.0107H34.3242V59.9951H35.7393C37.1247 59.9951 38.166 59.6556 38.8633 58.9766C39.5605 58.293 39.9092 57.2835 39.9092 55.9482ZM46.3691 61.1367C45.2617 61.1367 44.3867 60.7995 43.7441 60.125C43.1061 59.4505 42.7871 58.514 42.7871 57.3154C42.7871 56.1077 43.0833 55.1484 43.6758 54.4375C44.2728 53.7266 45.0726 53.3711 46.0752 53.3711C47.014 53.3711 47.7568 53.681 48.3037 54.3008C48.8506 54.916 49.124 55.7295 49.124 56.7412V57.459H43.9629C43.9857 58.3385 44.2067 59.0062 44.626 59.4619C45.0498 59.9176 45.6445 60.1455 46.4102 60.1455C47.2168 60.1455 48.0143 59.9769 48.8027 59.6396V60.6514C48.4017 60.8245 48.0212 60.9476 47.6611 61.0205C47.3057 61.098 46.875 61.1367 46.3691 61.1367ZM46.0615 54.3213C45.46 54.3213 44.9792 54.5173 44.6191 54.9092C44.2637 55.3011 44.054 55.8434 43.9902 56.5361H47.9072C47.9072 55.8206 47.7477 55.2738 47.4287 54.8955C47.1097 54.5127 46.654 54.3213 46.0615 54.3213ZM53.4854 60.2002C53.6859 60.2002 53.8796 60.1865 54.0664 60.1592C54.2533 60.1273 54.4014 60.0954 54.5107 60.0635V60.9316C54.3877 60.9909 54.2054 61.0387 53.9639 61.0752C53.7269 61.1162 53.5127 61.1367 53.3213 61.1367C51.8721 61.1367 51.1475 60.3734 51.1475 58.8467V54.3896H50.0742V53.8428L51.1475 53.3711L51.626 51.7715H52.2822V53.5078H54.4561V54.3896H52.2822V58.7988C52.2822 59.25 52.3893 59.5964 52.6035 59.8379C52.8177 60.0794 53.1117 60.2002 53.4854 60.2002ZM60.6221 61L60.3965 59.9336H60.3418C59.9681 60.403 59.5944 60.722 59.2207 60.8906C58.8516 61.0547 58.389 61.1367 57.833 61.1367C57.0902 61.1367 56.5068 60.9453 56.083 60.5625C55.6637 60.1797 55.4541 59.6351 55.4541 58.9287C55.4541 57.4157 56.6641 56.6227 59.084 56.5498L60.3555 56.5088V56.0439C60.3555 55.4561 60.2279 55.0231 59.9727 54.7451C59.722 54.4626 59.3187 54.3213 58.7627 54.3213C58.1383 54.3213 57.432 54.5127 56.6436 54.8955L56.2949 54.0273C56.6641 53.8268 57.0674 53.6696 57.5049 53.5557C57.9469 53.4417 58.389 53.3848 58.8311 53.3848C59.7243 53.3848 60.3851 53.583 60.8135 53.9795C61.2464 54.376 61.4629 55.0117 61.4629 55.8867V61H60.6221ZM58.0586 60.2002C58.765 60.2002 59.3187 60.0065 59.7197 59.6191C60.1253 59.2318 60.3281 58.6895 60.3281 57.9922V57.3154L59.1934 57.3633C58.291 57.3952 57.6393 57.5365 57.2383 57.7871C56.8418 58.0332 56.6436 58.4183 56.6436 58.9424C56.6436 59.3525 56.7666 59.6647 57.0127 59.8789C57.2633 60.0931 57.612 60.2002 58.0586 60.2002ZM64.9424 61H63.8076V50.3633H64.9424V61ZM66.4395 64.3633C66.0065 64.3633 65.6556 64.3063 65.3867 64.1924V63.2695C65.7012 63.3607 66.0111 63.4062 66.3164 63.4062C66.6719 63.4062 66.9316 63.3083 67.0957 63.1123C67.2643 62.9209 67.3486 62.627 67.3486 62.2305V53.5078H68.4834V62.1484C68.4834 63.625 67.8021 64.3633 66.4395 64.3633ZM67.2529 51.4775C67.2529 51.2178 67.3167 51.0286 67.4443 50.9102C67.5719 50.7871 67.7314 50.7256 67.9229 50.7256C68.1051 50.7256 68.2624 50.7871 68.3945 50.9102C68.5267 51.0332 68.5928 51.2223 68.5928 51.4775C68.5928 51.7327 68.5267 51.9242 68.3945 52.0518C68.2624 52.1748 68.1051 52.2363 67.9229 52.2363C67.7314 52.2363 67.5719 52.1748 67.4443 52.0518C67.3167 51.9242 67.2529 51.7327 67.2529 51.4775ZM74.0547 61.1367C72.9473 61.1367 72.0723 60.7995 71.4297 60.125C70.7917 59.4505 70.4727 58.514 70.4727 57.3154C70.4727 56.1077 70.7689 55.1484 71.3613 54.4375C71.9583 53.7266 72.7581 53.3711 73.7607 53.3711C74.6995 53.3711 75.4424 53.681 75.9893 54.3008C76.5361 54.916 76.8096 55.7295 76.8096 56.7412V57.459H71.6484C71.6712 58.3385 71.8923 59.0062 72.3115 59.4619C72.7354 59.9176 73.3301 60.1455 74.0957 60.1455C74.9023 60.1455 75.6999 59.9769 76.4883 59.6396V60.6514C76.0872 60.8245 75.7067 60.9476 75.3467 61.0205C74.9912 61.098 74.5605 61.1367 74.0547 61.1367ZM73.7471 54.3213C73.1455 54.3213 72.6647 54.5173 72.3047 54.9092C71.9492 55.3011 71.7396 55.8434 71.6758 56.5361H75.5928C75.5928 55.8206 75.4333 55.2738 75.1143 54.8955C74.7952 54.5127 74.3395 54.3213 73.7471 54.3213ZM82.1689 53.3711C82.5016 53.3711 82.8001 53.3984 83.0645 53.4531L82.9072 54.5059C82.5973 54.4375 82.3239 54.4033 82.0869 54.4033C81.4808 54.4033 80.9613 54.6494 80.5283 55.1416C80.0999 55.6338 79.8857 56.2467 79.8857 56.9805V61H78.751V53.5078H79.6875L79.8174 54.8955H79.8721C80.1501 54.4079 80.485 54.0319 80.877 53.7676C81.2689 53.5033 81.6995 53.3711 82.1689 53.3711ZM86.8857 60.2002C87.0863 60.2002 87.2799 60.1865 87.4668 60.1592C87.6536 60.1273 87.8018 60.0954 87.9111 60.0635V60.9316C87.7881 60.9909 87.6058 61.0387 87.3643 61.0752C87.1273 61.1162 86.9131 61.1367 86.7217 61.1367C85.2725 61.1367 84.5479 60.3734 84.5479 58.8467V54.3896H83.4746V53.8428L84.5479 53.3711L85.0264 51.7715H85.6826V53.5078H87.8564V54.3896H85.6826V58.7988C85.6826 59.25 85.7897 59.5964 86.0039 59.8379C86.2181 60.0794 86.512 60.2002 86.8857 60.2002ZM18.9092 76.2471C18.9092 77.4684 18.6016 78.4232 17.9863 79.1113C17.3711 79.7949 16.5212 80.1367 15.4365 80.1367C14.7666 80.1367 14.1719 79.9795 13.6523 79.665C13.1328 79.3506 12.7318 78.8994 12.4492 78.3115C12.1667 77.7236 12.0254 77.0355 12.0254 76.2471C12.0254 75.0257 12.3307 74.0755 12.9414 73.3965C13.5521 72.7129 14.3997 72.3711 15.4844 72.3711C16.5326 72.3711 17.3643 72.7197 17.9795 73.417C18.5993 74.1143 18.9092 75.0576 18.9092 76.2471ZM13.2012 76.2471C13.2012 77.2041 13.3926 77.9333 13.7754 78.4346C14.1582 78.9359 14.721 79.1865 15.4639 79.1865C16.2067 79.1865 16.7695 78.9382 17.1523 78.4414C17.5397 77.9401 17.7334 77.2087 17.7334 76.2471C17.7334 75.2946 17.5397 74.5723 17.1523 74.0801C16.7695 73.5833 16.2021 73.335 15.4502 73.335C14.7074 73.335 14.1468 73.5788 13.7686 74.0664C13.3903 74.554 13.2012 75.2809 13.2012 76.2471ZM22.5459 80L19.7021 72.5078H20.9189L22.5322 76.9512C22.8968 77.9902 23.111 78.6647 23.1748 78.9746H23.2295C23.2796 78.7331 23.4368 78.234 23.7012 77.4775C23.9701 76.7165 24.5693 75.0599 25.499 72.5078H26.7158L23.8721 80H22.5459ZM31.084 80.1367C29.9766 80.1367 29.1016 79.7995 28.459 79.125C27.821 78.4505 27.502 77.514 27.502 76.3154C27.502 75.1077 27.7982 74.1484 28.3906 73.4375C28.9876 72.7266 29.7874 72.3711 30.79 72.3711C31.7288 72.3711 32.4717 72.681 33.0186 73.3008C33.5654 73.916 33.8389 74.7295 33.8389 75.7412V76.459H28.6777C28.7005 77.3385 28.9215 78.0062 29.3408 78.4619C29.7646 78.9176 30.3594 79.1455 31.125 79.1455C31.9316 79.1455 32.7292 78.9769 33.5176 78.6396V79.6514C33.1165 79.8245 32.736 79.9476 32.376 80.0205C32.0205 80.098 31.5898 80.1367 31.084 80.1367ZM30.7764 73.3213C30.1748 73.3213 29.694 73.5173 29.334 73.9092C28.9785 74.3011 28.7689 74.8434 28.7051 75.5361H32.6221C32.6221 74.8206 32.4626 74.2738 32.1436 73.8955C31.8245 73.5127 31.3688 73.3213 30.7764 73.3213ZM39.1982 72.3711C39.5309 72.3711 39.8294 72.3984 40.0938 72.4531L39.9365 73.5059C39.6266 73.4375 39.3532 73.4033 39.1162 73.4033C38.5101 73.4033 37.9906 73.6494 37.5576 74.1416C37.1292 74.6338 36.915 75.2467 36.915 75.9805V80H35.7803V72.5078H36.7168L36.8467 73.8955H36.9014C37.1794 73.4079 37.5143 73.0319 37.9062 72.7676C38.2982 72.5033 38.7288 72.3711 39.1982 72.3711ZM46.3281 77.9561C46.3281 78.6533 46.0684 79.1911 45.5488 79.5693C45.0293 79.9476 44.3001 80.1367 43.3613 80.1367C42.3678 80.1367 41.5931 79.9795 41.0371 79.665V78.6123C41.3971 78.7946 41.7822 78.9382 42.1924 79.043C42.6071 79.1478 43.0059 79.2002 43.3887 79.2002C43.9811 79.2002 44.4368 79.1068 44.7559 78.9199C45.0749 78.7285 45.2344 78.4391 45.2344 78.0518C45.2344 77.7601 45.1068 77.5117 44.8516 77.3066C44.6009 77.097 44.1087 76.8509 43.375 76.5684C42.6777 76.3086 42.181 76.083 41.8848 75.8916C41.5931 75.6956 41.3743 75.4746 41.2285 75.2285C41.0872 74.9824 41.0166 74.6885 41.0166 74.3467C41.0166 73.736 41.265 73.2552 41.7617 72.9043C42.2585 72.5488 42.9398 72.3711 43.8057 72.3711C44.6123 72.3711 45.4007 72.5352 46.1709 72.8633L45.7676 73.7861C45.0156 73.4762 44.3343 73.3213 43.7236 73.3213C43.1859 73.3213 42.7803 73.4056 42.5068 73.5742C42.2334 73.7428 42.0967 73.9753 42.0967 74.2715C42.0967 74.472 42.1468 74.6429 42.2471 74.7842C42.3519 74.9255 42.5182 75.0599 42.7461 75.1875C42.974 75.3151 43.4115 75.4997 44.0586 75.7412C44.9473 76.0648 45.5465 76.3906 45.8564 76.7188C46.1709 77.0469 46.3281 77.4593 46.3281 77.9561ZM49.3154 80H48.1807V72.5078H49.3154V80ZM48.085 70.4775C48.085 70.2178 48.1488 70.0286 48.2764 69.9102C48.404 69.7871 48.5635 69.7256 48.7549 69.7256C48.9372 69.7256 49.0944 69.7871 49.2266 69.9102C49.3587 70.0332 49.4248 70.2223 49.4248 70.4775C49.4248 70.7327 49.3587 70.9242 49.2266 71.0518C49.0944 71.1748 48.9372 71.2363 48.7549 71.2363C48.5635 71.2363 48.404 71.1748 48.2764 71.0518C48.1488 70.9242 48.085 70.7327 48.085 70.4775ZM52.8428 76.165C53.0387 75.887 53.3372 75.5225 53.7383 75.0713L56.1582 72.5078H57.5049L54.4697 75.7002L57.7168 80H56.3428L53.6973 76.459L52.8428 77.1973V80H51.7217V69.3633H52.8428V75.0029C52.8428 75.2536 52.8245 75.641 52.7881 76.165H52.8428ZM61.4971 79.2002C61.6976 79.2002 61.8913 79.1865 62.0781 79.1592C62.265 79.1273 62.4131 79.0954 62.5225 79.0635V79.9316C62.3994 79.9909 62.2171 80.0387 61.9756 80.0752C61.7386 80.1162 61.5244 80.1367 61.333 80.1367C59.8838 80.1367 59.1592 79.3734 59.1592 77.8467V73.3896H58.0859V72.8428L59.1592 72.3711L59.6377 70.7715H60.2939V72.5078H62.4678V73.3896H60.2939V77.7988C60.2939 78.25 60.401 78.5964 60.6152 78.8379C60.8294 79.0794 61.1234 79.2002 61.4971 79.2002ZM71.1494 80.1367C70.6618 80.1367 70.2152 80.0479 69.8096 79.8701C69.4085 79.6878 69.0713 79.4098 68.7979 79.0361H68.7158C68.7705 79.4736 68.7979 79.8883 68.7979 80.2803V83.3633H67.6631V72.5078H68.5859L68.7432 73.5332H68.7979C69.0895 73.123 69.429 72.8268 69.8164 72.6445C70.2038 72.4622 70.6481 72.3711 71.1494 72.3711C72.1429 72.3711 72.9085 72.7106 73.4463 73.3896C73.9886 74.0687 74.2598 75.0212 74.2598 76.2471C74.2598 77.4775 73.984 78.4346 73.4326 79.1182C72.8857 79.7972 72.1247 80.1367 71.1494 80.1367ZM70.9854 73.335C70.2197 73.335 69.666 73.5469 69.3242 73.9707C68.9824 74.3945 68.807 75.069 68.7979 75.9941V76.2471C68.7979 77.2998 68.9733 78.054 69.3242 78.5098C69.6751 78.9609 70.238 79.1865 71.0127 79.1865C71.6598 79.1865 72.1657 78.9245 72.5303 78.4004C72.8994 77.8763 73.084 77.154 73.084 76.2334C73.084 75.2992 72.8994 74.5837 72.5303 74.0869C72.1657 73.5856 71.6507 73.335 70.9854 73.335ZM79.667 72.3711C79.9997 72.3711 80.2982 72.3984 80.5625 72.4531L80.4053 73.5059C80.0954 73.4375 79.8219 73.4033 79.585 73.4033C78.9788 73.4033 78.4593 73.6494 78.0264 74.1416C77.598 74.6338 77.3838 75.2467 77.3838 75.9805V80H76.249V72.5078H77.1855L77.3154 73.8955H77.3701C77.6481 73.4079 77.9831 73.0319 78.375 72.7676C78.7669 72.5033 79.1976 72.3711 79.667 72.3711ZM95.1504 80V75.126C95.1504 74.529 95.0228 74.0824 94.7676 73.7861C94.5124 73.4854 94.1159 73.335 93.5781 73.335C92.8717 73.335 92.3499 73.5378 92.0127 73.9434C91.6755 74.349 91.5068 74.9733 91.5068 75.8164V80H90.3721V75.126C90.3721 74.529 90.2445 74.0824 89.9893 73.7861C89.734 73.4854 89.3353 73.335 88.793 73.335C88.082 73.335 87.5602 73.5492 87.2275 73.9775C86.8994 74.4014 86.7354 75.0986 86.7354 76.0693V80H85.6006V72.5078H86.5234L86.708 73.5332H86.7627C86.9769 73.1686 87.2777 72.8838 87.665 72.6787C88.057 72.4736 88.4945 72.3711 88.9775 72.3711C90.1488 72.3711 90.9144 72.7949 91.2744 73.6426H91.3291C91.5524 73.2507 91.876 72.9408 92.2998 72.7129C92.7236 72.485 93.2067 72.3711 93.749 72.3711C94.5967 72.3711 95.2301 72.5898 95.6494 73.0273C96.0732 73.4603 96.2852 74.1553 96.2852 75.1123V80H95.1504ZM103.237 80L103.012 78.9336H102.957C102.583 79.403 102.21 79.722 101.836 79.8906C101.467 80.0547 101.004 80.1367 100.448 80.1367C99.7054 80.1367 99.1221 79.9453 98.6982 79.5625C98.279 79.1797 98.0693 78.6351 98.0693 77.9287C98.0693 76.4157 99.2793 75.6227 101.699 75.5498L102.971 75.5088V75.0439C102.971 74.4561 102.843 74.0231 102.588 73.7451C102.337 73.4626 101.934 73.3213 101.378 73.3213C100.754 73.3213 100.047 73.5127 99.2588 73.8955L98.9102 73.0273C99.2793 72.8268 99.6826 72.6696 100.12 72.5557C100.562 72.4417 101.004 72.3848 101.446 72.3848C102.34 72.3848 103 72.583 103.429 72.9795C103.862 73.376 104.078 74.0117 104.078 74.8867V80H103.237ZM100.674 79.2002C101.38 79.2002 101.934 79.0065 102.335 78.6191C102.741 78.2318 102.943 77.6895 102.943 76.9922V76.3154L101.809 76.3633C100.906 76.3952 100.255 76.5365 99.8535 76.7871C99.457 77.0332 99.2588 77.4183 99.2588 77.9424C99.2588 78.3525 99.3818 78.6647 99.6279 78.8789C99.8786 79.0931 100.227 79.2002 100.674 79.2002ZM102.923 70.0332C102.923 70.4798 102.782 70.8398 102.499 71.1133C102.221 71.3822 101.85 71.5166 101.385 71.5166C100.924 71.5166 100.558 71.3844 100.284 71.1201C100.011 70.8512 99.874 70.4935 99.874 70.0469C99.874 69.6003 100.011 69.2471 100.284 68.9873C100.562 68.723 100.929 68.5908 101.385 68.5908C101.845 68.5908 102.216 68.7275 102.499 69.001C102.782 69.2699 102.923 69.6139 102.923 70.0332ZM102.185 70.0469C102.185 69.7917 102.109 69.5957 101.959 69.459C101.809 69.3177 101.617 69.2471 101.385 69.2471C101.152 69.2471 100.961 69.3177 100.811 69.459C100.66 69.5957 100.585 69.7917 100.585 70.0469C100.585 70.3021 100.653 70.5003 100.79 70.6416C100.927 70.7783 101.125 70.8467 101.385 70.8467C101.622 70.8467 101.813 70.7783 101.959 70.6416C102.109 70.5003 102.185 70.3021 102.185 70.0469ZM107.558 80H106.423V69.3633H107.558V80Z" fill="#2B2859"/>
</svg>
