<svg width="117" height="68" viewBox="0 0 117 68" fill="none" xmlns="http://www.w3.org/2000/svg">
<path d="M57 24C63.0751 24 68 19.0751 68 13C68 6.92487 63.0751 2 57 2C50.9249 2 46 6.92487 46 13C46 19.0751 50.9249 24 57 24Z" stroke="#2B2859" stroke-width="2" stroke-miterlimit="10"/>
<path d="M57.282 16.7331C57.1087 16.5598 57.005 16.329 56.9906 16.0844C56.9762 15.8398 57.0522 15.5984 57.204 15.4061L57.282 15.3191L58.61 13.9901H52.572C52.3157 13.9918 52.0685 13.895 51.8814 13.7198C51.6944 13.5445 51.5818 13.3041 51.5669 13.0482C51.552 12.7922 51.6359 12.5404 51.8014 12.3446C51.9669 12.1488 52.2012 12.024 52.456 11.9961L52.572 11.9901H58.59L57.282 10.6811C57.1085 10.508 57.0047 10.2772 56.9901 10.0326C56.9755 9.78796 57.0513 9.5465 57.203 9.35405L57.282 9.26705C57.4552 9.09399 57.6858 8.99047 57.9302 8.97609C58.1746 8.96172 58.4158 9.03749 58.608 9.18905L58.695 9.26605L62.428 12.9991L58.696 16.7331C58.5085 16.9205 58.2542 17.0258 57.989 17.0258C57.7239 17.0258 57.4695 16.9205 57.282 16.7331Z" fill="#2B2859"/>
<path d="M38.1396 39.9072C38.1396 41.557 37.6908 42.8193 36.793 43.6943C35.8997 44.5648 34.6123 45 32.9307 45H30.1621V35.0059H33.2246C34.7786 35.0059 35.9863 35.4365 36.8477 36.2979C37.709 37.1592 38.1396 38.3623 38.1396 39.9072ZM36.9092 39.9482C36.9092 38.6449 36.5811 37.6628 35.9248 37.002C35.2731 36.3411 34.3024 36.0107 33.0127 36.0107H31.3242V43.9951H32.7393C34.1247 43.9951 35.166 43.6556 35.8633 42.9766C36.5605 42.293 36.9092 41.2835 36.9092 39.9482ZM43.3691 45.1367C42.2617 45.1367 41.3867 44.7995 40.7441 44.125C40.1061 43.4505 39.7871 42.514 39.7871 41.3154C39.7871 40.1077 40.0833 39.1484 40.6758 38.4375C41.2728 37.7266 42.0726 37.3711 43.0752 37.3711C44.014 37.3711 44.7568 37.681 45.3037 38.3008C45.8506 38.916 46.124 39.7295 46.124 40.7412V41.459H40.9629C40.9857 42.3385 41.2067 43.0062 41.626 43.4619C42.0498 43.9176 42.6445 44.1455 43.4102 44.1455C44.2168 44.1455 45.0143 43.9769 45.8027 43.6396V44.6514C45.4017 44.8245 45.0212 44.9476 44.6611 45.0205C44.3057 45.098 43.875 45.1367 43.3691 45.1367ZM43.0615 38.3213C42.46 38.3213 41.9792 38.5173 41.6191 38.9092C41.2637 39.3011 41.054 39.8434 40.9902 40.5361H44.9072C44.9072 39.8206 44.7477 39.2738 44.4287 38.8955C44.1097 38.5127 43.654 38.3213 43.0615 38.3213ZM50.4854 44.2002C50.6859 44.2002 50.8796 44.1865 51.0664 44.1592C51.2533 44.1273 51.4014 44.0954 51.5107 44.0635V44.9316C51.3877 44.9909 51.2054 45.0387 50.9639 45.0752C50.7269 45.1162 50.5127 45.1367 50.3213 45.1367C48.8721 45.1367 48.1475 44.3734 48.1475 42.8467V38.3896H47.0742V37.8428L48.1475 37.3711L48.626 35.7715H49.2822V37.5078H51.4561V38.3896H49.2822V42.7988C49.2822 43.25 49.3893 43.5964 49.6035 43.8379C49.8177 44.0794 50.1117 44.2002 50.4854 44.2002ZM57.6221 45L57.3965 43.9336H57.3418C56.9681 44.403 56.5944 44.722 56.2207 44.8906C55.8516 45.0547 55.389 45.1367 54.833 45.1367C54.0902 45.1367 53.5068 44.9453 53.083 44.5625C52.6637 44.1797 52.4541 43.6351 52.4541 42.9287C52.4541 41.4157 53.6641 40.6227 56.084 40.5498L57.3555 40.5088V40.0439C57.3555 39.4561 57.2279 39.0231 56.9727 38.7451C56.722 38.4626 56.3187 38.3213 55.7627 38.3213C55.1383 38.3213 54.432 38.5127 53.6436 38.8955L53.2949 38.0273C53.6641 37.8268 54.0674 37.6696 54.5049 37.5557C54.9469 37.4417 55.389 37.3848 55.8311 37.3848C56.7243 37.3848 57.3851 37.583 57.8135 37.9795C58.2464 38.376 58.4629 39.0117 58.4629 39.8867V45H57.6221ZM55.0586 44.2002C55.765 44.2002 56.3187 44.0065 56.7197 43.6191C57.1253 43.2318 57.3281 42.6895 57.3281 41.9922V41.3154L56.1934 41.3633C55.291 41.3952 54.6393 41.5365 54.2383 41.7871C53.8418 42.0332 53.6436 42.4183 53.6436 42.9424C53.6436 43.3525 53.7666 43.6647 54.0127 43.8789C54.2633 44.0931 54.612 44.2002 55.0586 44.2002ZM61.9424 45H60.8076V34.3633H61.9424V45ZM63.4395 48.3633C63.0065 48.3633 62.6556 48.3063 62.3867 48.1924V47.2695C62.7012 47.3607 63.0111 47.4062 63.3164 47.4062C63.6719 47.4062 63.9316 47.3083 64.0957 47.1123C64.2643 46.9209 64.3486 46.627 64.3486 46.2305V37.5078H65.4834V46.1484C65.4834 47.625 64.8021 48.3633 63.4395 48.3633ZM64.2529 35.4775C64.2529 35.2178 64.3167 35.0286 64.4443 34.9102C64.5719 34.7871 64.7314 34.7256 64.9229 34.7256C65.1051 34.7256 65.2624 34.7871 65.3945 34.9102C65.5267 35.0332 65.5928 35.2223 65.5928 35.4775C65.5928 35.7327 65.5267 35.9242 65.3945 36.0518C65.2624 36.1748 65.1051 36.2363 64.9229 36.2363C64.7314 36.2363 64.5719 36.1748 64.4443 36.0518C64.3167 35.9242 64.2529 35.7327 64.2529 35.4775ZM71.0547 45.1367C69.9473 45.1367 69.0723 44.7995 68.4297 44.125C67.7917 43.4505 67.4727 42.514 67.4727 41.3154C67.4727 40.1077 67.7689 39.1484 68.3613 38.4375C68.9583 37.7266 69.7581 37.3711 70.7607 37.3711C71.6995 37.3711 72.4424 37.681 72.9893 38.3008C73.5361 38.916 73.8096 39.7295 73.8096 40.7412V41.459H68.6484C68.6712 42.3385 68.8923 43.0062 69.3115 43.4619C69.7354 43.9176 70.3301 44.1455 71.0957 44.1455C71.9023 44.1455 72.6999 43.9769 73.4883 43.6396V44.6514C73.0872 44.8245 72.7067 44.9476 72.3467 45.0205C71.9912 45.098 71.5605 45.1367 71.0547 45.1367ZM70.7471 38.3213C70.1455 38.3213 69.6647 38.5173 69.3047 38.9092C68.9492 39.3011 68.7396 39.8434 68.6758 40.5361H72.5928C72.5928 39.8206 72.4333 39.2738 72.1143 38.8955C71.7952 38.5127 71.3395 38.3213 70.7471 38.3213ZM79.1689 37.3711C79.5016 37.3711 79.8001 37.3984 80.0645 37.4531L79.9072 38.5059C79.5973 38.4375 79.3239 38.4033 79.0869 38.4033C78.4808 38.4033 77.9613 38.6494 77.5283 39.1416C77.0999 39.6338 76.8857 40.2467 76.8857 40.9805V45H75.751V37.5078H76.6875L76.8174 38.8955H76.8721C77.1501 38.4079 77.485 38.0319 77.877 37.7676C78.2689 37.5033 78.6995 37.3711 79.1689 37.3711ZM83.8857 44.2002C84.0863 44.2002 84.2799 44.1865 84.4668 44.1592C84.6536 44.1273 84.8018 44.0954 84.9111 44.0635V44.9316C84.7881 44.9909 84.6058 45.0387 84.3643 45.0752C84.1273 45.1162 83.9131 45.1367 83.7217 45.1367C82.2725 45.1367 81.5479 44.3734 81.5479 42.8467V38.3896H80.4746V37.8428L81.5479 37.3711L82.0264 35.7715H82.6826V37.5078H84.8564V38.3896H82.6826V42.7988C82.6826 43.25 82.7897 43.5964 83.0039 43.8379C83.2181 44.0794 83.512 44.2002 83.8857 44.2002ZM15.9092 60.2471C15.9092 61.4684 15.6016 62.4232 14.9863 63.1113C14.3711 63.7949 13.5212 64.1367 12.4365 64.1367C11.7666 64.1367 11.1719 63.9795 10.6523 63.665C10.1328 63.3506 9.73177 62.8994 9.44922 62.3115C9.16667 61.7236 9.02539 61.0355 9.02539 60.2471C9.02539 59.0257 9.33073 58.0755 9.94141 57.3965C10.5521 56.7129 11.3997 56.3711 12.4844 56.3711C13.5326 56.3711 14.3643 56.7197 14.9795 57.417C15.5993 58.1143 15.9092 59.0576 15.9092 60.2471ZM10.2012 60.2471C10.2012 61.2041 10.3926 61.9333 10.7754 62.4346C11.1582 62.9359 11.721 63.1865 12.4639 63.1865C13.2067 63.1865 13.7695 62.9382 14.1523 62.4414C14.5397 61.9401 14.7334 61.2087 14.7334 60.2471C14.7334 59.2946 14.5397 58.5723 14.1523 58.0801C13.7695 57.5833 13.2021 57.335 12.4502 57.335C11.7074 57.335 11.1468 57.5788 10.7686 58.0664C10.3903 58.554 10.2012 59.2809 10.2012 60.2471ZM19.5459 64L16.7021 56.5078H17.9189L19.5322 60.9512C19.8968 61.9902 20.111 62.6647 20.1748 62.9746H20.2295C20.2796 62.7331 20.4368 62.234 20.7012 61.4775C20.9701 60.7165 21.5693 59.0599 22.499 56.5078H23.7158L20.8721 64H19.5459ZM28.084 64.1367C26.9766 64.1367 26.1016 63.7995 25.459 63.125C24.821 62.4505 24.502 61.514 24.502 60.3154C24.502 59.1077 24.7982 58.1484 25.3906 57.4375C25.9876 56.7266 26.7874 56.3711 27.79 56.3711C28.7288 56.3711 29.4717 56.681 30.0186 57.3008C30.5654 57.916 30.8389 58.7295 30.8389 59.7412V60.459H25.6777C25.7005 61.3385 25.9215 62.0062 26.3408 62.4619C26.7646 62.9176 27.3594 63.1455 28.125 63.1455C28.9316 63.1455 29.7292 62.9769 30.5176 62.6396V63.6514C30.1165 63.8245 29.736 63.9476 29.376 64.0205C29.0205 64.098 28.5898 64.1367 28.084 64.1367ZM27.7764 57.3213C27.1748 57.3213 26.694 57.5173 26.334 57.9092C25.9785 58.3011 25.7689 58.8434 25.7051 59.5361H29.6221C29.6221 58.8206 29.4626 58.2738 29.1436 57.8955C28.8245 57.5127 28.3688 57.3213 27.7764 57.3213ZM36.1982 56.3711C36.5309 56.3711 36.8294 56.3984 37.0938 56.4531L36.9365 57.5059C36.6266 57.4375 36.3532 57.4033 36.1162 57.4033C35.5101 57.4033 34.9906 57.6494 34.5576 58.1416C34.1292 58.6338 33.915 59.2467 33.915 59.9805V64H32.7803V56.5078H33.7168L33.8467 57.8955H33.9014C34.1794 57.4079 34.5143 57.0319 34.9062 56.7676C35.2982 56.5033 35.7288 56.3711 36.1982 56.3711ZM43.3281 61.9561C43.3281 62.6533 43.0684 63.1911 42.5488 63.5693C42.0293 63.9476 41.3001 64.1367 40.3613 64.1367C39.3678 64.1367 38.5931 63.9795 38.0371 63.665V62.6123C38.3971 62.7946 38.7822 62.9382 39.1924 63.043C39.6071 63.1478 40.0059 63.2002 40.3887 63.2002C40.9811 63.2002 41.4368 63.1068 41.7559 62.9199C42.0749 62.7285 42.2344 62.4391 42.2344 62.0518C42.2344 61.7601 42.1068 61.5117 41.8516 61.3066C41.6009 61.097 41.1087 60.8509 40.375 60.5684C39.6777 60.3086 39.181 60.083 38.8848 59.8916C38.5931 59.6956 38.3743 59.4746 38.2285 59.2285C38.0872 58.9824 38.0166 58.6885 38.0166 58.3467C38.0166 57.736 38.265 57.2552 38.7617 56.9043C39.2585 56.5488 39.9398 56.3711 40.8057 56.3711C41.6123 56.3711 42.4007 56.5352 43.1709 56.8633L42.7676 57.7861C42.0156 57.4762 41.3343 57.3213 40.7236 57.3213C40.1859 57.3213 39.7803 57.4056 39.5068 57.5742C39.2334 57.7428 39.0967 57.9753 39.0967 58.2715C39.0967 58.472 39.1468 58.6429 39.2471 58.7842C39.3519 58.9255 39.5182 59.0599 39.7461 59.1875C39.974 59.3151 40.4115 59.4997 41.0586 59.7412C41.9473 60.0648 42.5465 60.3906 42.8564 60.7188C43.1709 61.0469 43.3281 61.4593 43.3281 61.9561ZM46.3154 64H45.1807V56.5078H46.3154V64ZM45.085 54.4775C45.085 54.2178 45.1488 54.0286 45.2764 53.9102C45.404 53.7871 45.5635 53.7256 45.7549 53.7256C45.9372 53.7256 46.0944 53.7871 46.2266 53.9102C46.3587 54.0332 46.4248 54.2223 46.4248 54.4775C46.4248 54.7327 46.3587 54.9242 46.2266 55.0518C46.0944 55.1748 45.9372 55.2363 45.7549 55.2363C45.5635 55.2363 45.404 55.1748 45.2764 55.0518C45.1488 54.9242 45.085 54.7327 45.085 54.4775ZM49.8428 60.165C50.0387 59.887 50.3372 59.5225 50.7383 59.0713L53.1582 56.5078H54.5049L51.4697 59.7002L54.7168 64H53.3428L50.6973 60.459L49.8428 61.1973V64H48.7217V53.3633H49.8428V59.0029C49.8428 59.2536 49.8245 59.641 49.7881 60.165H49.8428ZM58.4971 63.2002C58.6976 63.2002 58.8913 63.1865 59.0781 63.1592C59.265 63.1273 59.4131 63.0954 59.5225 63.0635V63.9316C59.3994 63.9909 59.2171 64.0387 58.9756 64.0752C58.7386 64.1162 58.5244 64.1367 58.333 64.1367C56.8838 64.1367 56.1592 63.3734 56.1592 61.8467V57.3896H55.0859V56.8428L56.1592 56.3711L56.6377 54.7715H57.2939V56.5078H59.4678V57.3896H57.2939V61.7988C57.2939 62.25 57.401 62.5964 57.6152 62.8379C57.8294 63.0794 58.1234 63.2002 58.4971 63.2002ZM68.1494 64.1367C67.6618 64.1367 67.2152 64.0479 66.8096 63.8701C66.4085 63.6878 66.0713 63.4098 65.7979 63.0361H65.7158C65.7705 63.4736 65.7979 63.8883 65.7979 64.2803V67.3633H64.6631V56.5078H65.5859L65.7432 57.5332H65.7979C66.0895 57.123 66.429 56.8268 66.8164 56.6445C67.2038 56.4622 67.6481 56.3711 68.1494 56.3711C69.1429 56.3711 69.9085 56.7106 70.4463 57.3896C70.9886 58.0687 71.2598 59.0212 71.2598 60.2471C71.2598 61.4775 70.984 62.4346 70.4326 63.1182C69.8857 63.7972 69.1247 64.1367 68.1494 64.1367ZM67.9854 57.335C67.2197 57.335 66.666 57.5469 66.3242 57.9707C65.9824 58.3945 65.807 59.069 65.7979 59.9941V60.2471C65.7979 61.2998 65.9733 62.054 66.3242 62.5098C66.6751 62.9609 67.238 63.1865 68.0127 63.1865C68.6598 63.1865 69.1657 62.9245 69.5303 62.4004C69.8994 61.8763 70.084 61.154 70.084 60.2334C70.084 59.2992 69.8994 58.5837 69.5303 58.0869C69.1657 57.5856 68.6507 57.335 67.9854 57.335ZM76.667 56.3711C76.9997 56.3711 77.2982 56.3984 77.5625 56.4531L77.4053 57.5059C77.0954 57.4375 76.8219 57.4033 76.585 57.4033C75.9788 57.4033 75.4593 57.6494 75.0264 58.1416C74.598 58.6338 74.3838 59.2467 74.3838 59.9805V64H73.249V56.5078H74.1855L74.3154 57.8955H74.3701C74.6481 57.4079 74.9831 57.0319 75.375 56.7676C75.7669 56.5033 76.1976 56.3711 76.667 56.3711ZM92.1504 64V59.126C92.1504 58.529 92.0228 58.0824 91.7676 57.7861C91.5124 57.4854 91.1159 57.335 90.5781 57.335C89.8717 57.335 89.3499 57.5378 89.0127 57.9434C88.6755 58.349 88.5068 58.9733 88.5068 59.8164V64H87.3721V59.126C87.3721 58.529 87.2445 58.0824 86.9893 57.7861C86.734 57.4854 86.3353 57.335 85.793 57.335C85.082 57.335 84.5602 57.5492 84.2275 57.9775C83.8994 58.4014 83.7354 59.0986 83.7354 60.0693V64H82.6006V56.5078H83.5234L83.708 57.5332H83.7627C83.9769 57.1686 84.2777 56.8838 84.665 56.6787C85.057 56.4736 85.4945 56.3711 85.9775 56.3711C87.1488 56.3711 87.9144 56.7949 88.2744 57.6426H88.3291C88.5524 57.2507 88.876 56.9408 89.2998 56.7129C89.7236 56.485 90.2067 56.3711 90.749 56.3711C91.5967 56.3711 92.2301 56.5898 92.6494 57.0273C93.0732 57.4603 93.2852 58.1553 93.2852 59.1123V64H92.1504ZM100.237 64L100.012 62.9336H99.957C99.5833 63.403 99.2096 63.722 98.8359 63.8906C98.4668 64.0547 98.0042 64.1367 97.4482 64.1367C96.7054 64.1367 96.1221 63.9453 95.6982 63.5625C95.279 63.1797 95.0693 62.6351 95.0693 61.9287C95.0693 60.4157 96.2793 59.6227 98.6992 59.5498L99.9707 59.5088V59.0439C99.9707 58.4561 99.8431 58.0231 99.5879 57.7451C99.3372 57.4626 98.9339 57.3213 98.3779 57.3213C97.7536 57.3213 97.0472 57.5127 96.2588 57.8955L95.9102 57.0273C96.2793 56.8268 96.6826 56.6696 97.1201 56.5557C97.5622 56.4417 98.0042 56.3848 98.4463 56.3848C99.3395 56.3848 100 56.583 100.429 56.9795C100.862 57.376 101.078 58.0117 101.078 58.8867V64H100.237ZM97.6738 63.2002C98.3802 63.2002 98.9339 63.0065 99.335 62.6191C99.7406 62.2318 99.9434 61.6895 99.9434 60.9922V60.3154L98.8086 60.3633C97.9062 60.3952 97.2546 60.5365 96.8535 60.7871C96.457 61.0332 96.2588 61.4183 96.2588 61.9424C96.2588 62.3525 96.3818 62.6647 96.6279 62.8789C96.8786 63.0931 97.2272 63.2002 97.6738 63.2002ZM99.9229 54.0332C99.9229 54.4798 99.7816 54.8398 99.499 55.1133C99.221 55.3822 98.8496 55.5166 98.3848 55.5166C97.9245 55.5166 97.5576 55.3844 97.2842 55.1201C97.0107 54.8512 96.874 54.4935 96.874 54.0469C96.874 53.6003 97.0107 53.2471 97.2842 52.9873C97.5622 52.723 97.929 52.5908 98.3848 52.5908C98.8451 52.5908 99.2165 52.7275 99.499 53.001C99.7816 53.2699 99.9229 53.6139 99.9229 54.0332ZM99.1846 54.0469C99.1846 53.7917 99.1094 53.5957 98.959 53.459C98.8086 53.3177 98.6172 53.2471 98.3848 53.2471C98.1523 53.2471 97.9609 53.3177 97.8105 53.459C97.6602 53.5957 97.585 53.7917 97.585 54.0469C97.585 54.3021 97.6533 54.5003 97.79 54.6416C97.9268 54.7783 98.125 54.8467 98.3848 54.8467C98.6217 54.8467 98.8132 54.7783 98.959 54.6416C99.1094 54.5003 99.1846 54.3021 99.1846 54.0469ZM104.558 64H103.423V53.3633H104.558V64Z" fill="#2B2859"/>
</svg>
