<svg width="36" height="36" viewBox="0 0 36 36" fill="none" xmlns="http://www.w3.org/2000/svg">
<g filter="url(#filter0_d)">
<rect x="4" width="28" height="28" rx="14" fill="white"/>
<path fill-rule="evenodd" clip-rule="evenodd" d="M23.1476 7.49792C22.4837 6.83403 21.4073 6.83403 20.7434 7.49792L11.378 16.8633L11 20.9737L15.1104 20.5957L24.4758 11.2303C25.1397 10.5664 25.1397 9.49003 24.4758 8.82614L23.1476 7.49792ZM21.7333 8.48787C21.8505 8.37071 22.0405 8.37071 22.1576 8.48787L23.4858 9.81609C23.603 9.93324 23.603 10.1232 23.4858 10.2404L22.3551 11.3711L20.6026 9.61857L21.7333 8.48787ZM19.6127 10.6085L12.7257 17.4955L12.5483 19.4254L14.4782 19.248L21.3652 12.361L19.6127 10.6085Z" fill="#2B2859"/>
</g>
<defs>
<filter id="filter0_d" x="0" y="0" width="36" height="36" filterUnits="userSpaceOnUse" color-interpolation-filters="sRGB">
<feFlood flood-opacity="0" result="BackgroundImageFix"/>
<feColorMatrix in="SourceAlpha" type="matrix" values="0 0 0 0 0 0 0 0 0 0 0 0 0 0 0 0 0 0 127 0"/>
<feOffset dy="4"/>
<feGaussianBlur stdDeviation="2"/>
<feColorMatrix type="matrix" values="0 0 0 0 0 0 0 0 0 0 0 0 0 0 0 0 0 0 0.25 0"/>
<feBlend mode="normal" in2="BackgroundImageFix" result="effect1_dropShadow"/>
<feBlend mode="normal" in="SourceGraphic" in2="effect1_dropShadow" result="shape"/>
</filter>
</defs>
</svg>
