<svg width="42" height="42" viewBox="0 0 42 42" fill="none" xmlns="http://www.w3.org/2000/svg">
<circle cx="21" cy="21" r="21" fill="#F9C66B"/>
<path d="M27.1581 28.5624L27.0711 28.4853L23.4762 24.8904C22.25 25.762 20.7411 26.1412 19.2485 25.9528C17.7559 25.7643 16.3885 25.022 15.4174 23.873C14.4463 22.724 13.9423 21.252 14.0053 19.7489C14.0682 18.2458 14.6936 16.8212 15.7574 15.7574C16.8212 14.6936 18.2458 14.0682 19.7489 14.0053C21.252 13.9423 22.724 14.4463 23.873 15.4174C25.022 16.3885 25.7643 17.7559 25.9528 19.2485C26.1412 20.7411 25.762 22.25 24.8904 23.4762L28.4853 27.0711C28.6678 27.2511 28.7742 27.4944 28.7826 27.7506C28.7909 28.0068 28.7005 28.2564 28.5301 28.4479C28.3596 28.6394 28.1222 28.7581 27.8667 28.7795C27.6113 28.801 27.3581 28.7228 27.1581 28.5624ZM17.1716 22.8285C17.731 23.3879 18.4438 23.7689 19.2197 23.9232C19.9956 24.0775 20.7999 23.9983 21.5308 23.6956C22.2617 23.3928 22.8864 22.8801 23.3259 22.2223C23.7655 21.5645 24.0001 20.7912 24.0001 20.0001C24.0001 19.2089 23.7655 18.4356 23.3259 17.7778C22.8864 17.12 22.2617 16.6073 21.5308 16.3045C20.7999 16.0018 19.9956 15.9226 19.2197 16.0769C18.4438 16.2313 17.731 16.6122 17.1716 17.1716C16.4215 17.9218 16.0001 18.9392 16.0001 20.0001C16.0001 21.0609 16.4215 22.0783 17.1716 22.8285Z" fill="#2B2859"/>
</svg>
