<svg width="15" height="14" viewBox="0 0 15 14" fill="none" xmlns="http://www.w3.org/2000/svg">
<path fill-rule="evenodd" clip-rule="evenodd" d="M10.7429 9.37197C12.4033 7.05737 12.1934 3.81526 10.1133 1.73516C7.79971 -0.578387 4.04871 -0.578387 1.73516 1.73516C-0.578387 4.04871 -0.578387 7.79971 1.73516 10.1133C3.92034 12.2984 7.38788 12.4197 9.71536 10.477L13.0075 13.7692C13.302 14.0636 13.7794 14.0636 14.0738 13.7692C14.3683 13.4747 14.3683 12.9973 14.0738 12.7029L10.7429 9.37197ZM9.04696 2.80147C10.7716 4.52611 10.7716 7.32231 9.04696 9.04696C7.32231 10.7716 4.52611 10.7716 2.80147 9.04696C1.07682 7.32231 1.07682 4.52611 2.80147 2.80147C4.52611 1.07682 7.32231 1.07682 9.04696 2.80147Z" fill="#005688"/>
</svg>
