<svg width="120" height="100" viewBox="0 0 120 100" fill="none" xmlns="http://www.w3.org/2000/svg">
<g clip-path="url(#clip0)">
<path d="M63.9643 51.3814L60.6831 49.5636L60.5894 49.5045C60.4021 49.3704 60.2708 49.172 60.2205 48.9472C60.1702 48.7224 60.2044 48.487 60.3166 48.2858L62.1343 45.0046L62.1934 44.9109C62.3276 44.7236 62.5259 44.5923 62.7507 44.542C62.9755 44.4917 63.211 44.5259 63.4121 44.638L63.5059 44.6962C63.6931 44.8303 63.8245 45.0287 63.8748 45.2535C63.9251 45.4783 63.8909 45.7137 63.7787 45.9149L62.694 47.8724C63.9392 47.5767 65.1107 47.0294 66.1365 46.2643C67.1624 45.4991 68.0209 44.5323 68.6594 43.4231C69.2978 42.3139 69.7027 41.0859 69.849 39.8145C69.9954 38.5432 69.8802 37.2553 69.5105 36.0301C69.4515 35.7966 69.4847 35.5494 69.6031 35.3397C69.7215 35.1301 69.916 34.974 70.1463 34.9038C70.3767 34.8337 70.6252 34.8548 70.8403 34.9629C71.0555 35.071 71.2208 35.2578 71.302 35.4844C72.1429 38.2672 71.8752 41.2673 70.555 43.8572C69.2347 46.4472 66.9642 48.4263 64.2184 49.3808L64.8746 49.7427L64.9684 49.8008C65.1628 49.9402 65.2965 50.1487 65.3421 50.3836C65.3878 50.6184 65.342 50.8618 65.214 51.064C65.086 51.2661 64.8856 51.4117 64.6538 51.4709C64.422 51.53 64.1763 51.4984 63.9671 51.3823L63.9643 51.3814ZM57.9785 49.7042C56.5274 49.3655 55.1581 48.7418 53.95 47.8695C52.7419 46.9971 51.7192 45.8935 50.9412 44.6226C50.1632 43.3517 49.6454 41.9389 49.418 40.4663C49.1905 38.9937 49.2578 37.4905 49.6161 36.0441L48.4274 36.7304L48.3336 36.7801C48.1128 36.883 47.8606 36.896 47.6304 36.8161C47.4002 36.7363 47.2101 36.57 47.1004 36.3524C46.9907 36.1349 46.97 35.8832 47.0427 35.6506C47.1154 35.4181 47.2758 35.223 47.4899 35.1066L50.7373 33.2317L50.8311 33.1829C51.0421 33.0919 51.2791 33.0816 51.4972 33.1538C51.7153 33.226 51.8993 33.3758 52.0142 33.5748L53.8892 36.8222L53.9379 36.916C54.0289 37.1269 54.0393 37.364 53.9671 37.5821C53.8948 37.8002 53.745 37.9842 53.5461 38.0991L53.4523 38.1478C53.242 38.2386 53.0057 38.2493 52.7881 38.1778C52.5705 38.1063 52.3865 37.9576 52.2711 37.7597L51.4686 36.3713C51.1508 37.5829 51.0791 38.8459 51.2577 40.0857C51.4362 41.3254 51.8613 42.5169 52.508 43.5896C53.1547 44.6623 54.0098 45.5946 55.0228 46.3313C56.0358 47.068 57.1862 47.5942 58.406 47.8789C58.5283 47.9045 58.6442 47.9543 58.747 48.0254C58.8498 48.0964 58.9373 48.1873 59.0045 48.2926C59.0716 48.398 59.1171 48.5157 59.1381 48.6389C59.1591 48.7621 59.1553 48.8882 59.1268 49.0099C59.0984 49.1315 59.0459 49.2463 58.9725 49.3474C58.8991 49.4485 58.8062 49.5339 58.6993 49.5986C58.5924 49.6633 58.4736 49.706 58.35 49.7241C58.2264 49.7422 58.1004 49.7355 57.9794 49.7042H57.9785ZM69.082 33.9985L65.3377 33.8026L65.229 33.7904C65.0023 33.7519 64.7976 33.6313 64.654 33.4517C64.5103 33.2721 64.4377 33.046 64.4499 32.8164L64.4621 32.7076C64.5009 32.4811 64.6215 32.2766 64.8011 32.1332C64.9806 31.9897 65.2067 31.9173 65.4362 31.9295L67.0627 32.0148C66.168 31.15 65.1103 30.4716 63.9511 30.0192C62.7919 29.5667 61.5543 29.3492 60.3103 29.3793C59.0663 29.4094 57.8407 29.6865 56.7047 30.1945C55.5687 30.7024 54.5451 31.4312 53.6932 32.3382C53.609 32.4281 53.5079 32.5005 53.3958 32.5513C53.2836 32.6021 53.1625 32.6303 53.0394 32.6344C52.9163 32.6384 52.7936 32.6181 52.6783 32.5747C52.5631 32.5313 52.4575 32.4656 52.3676 32.3814C52.2778 32.2972 52.2054 32.1961 52.1546 32.0839C52.1037 31.9717 52.0755 31.8506 52.0715 31.7275C52.0675 31.6044 52.0878 31.4817 52.1312 31.3665C52.1746 31.2512 52.2403 31.1456 52.3245 31.0558C53.3426 29.9707 54.5655 29.0982 55.9228 28.4886C57.28 27.879 58.7446 27.5444 60.2319 27.5041C61.7192 27.4639 63.1997 27.7187 64.588 28.254C65.9762 28.7892 67.2446 29.5943 68.3199 30.6227L68.3958 29.268L68.408 29.1592C68.447 28.9223 68.5755 28.7093 68.7669 28.5643C68.9583 28.4193 69.1981 28.3532 69.4368 28.3798C69.6754 28.4064 69.8948 28.5235 70.0496 28.7071C70.2045 28.8907 70.283 29.1267 70.2689 29.3664L70.073 33.1107L70.0552 33.2176C70.0178 33.4353 69.9048 33.6329 69.736 33.7754C69.5673 33.9179 69.3536 33.9963 69.1327 33.9967L69.082 33.9985Z" fill="#2B2859"/>
</g>
<path d="M44.8857 70.5L43.6416 67.3213H39.6357L38.4053 70.5H37.2295L41.1807 60.4648H42.1582L46.0889 70.5H44.8857ZM43.2793 66.2754L42.1172 63.1787C41.9668 62.7868 41.8118 62.306 41.6523 61.7363C41.5521 62.1738 41.4085 62.6546 41.2217 63.1787L40.0459 66.2754H43.2793ZM43.1768 59.6514C43.1768 60.098 43.0355 60.458 42.7529 60.7314C42.4749 61.0003 42.1035 61.1348 41.6387 61.1348C41.1784 61.1348 40.8115 61.0026 40.5381 60.7383C40.2646 60.4694 40.1279 60.1117 40.1279 59.665C40.1279 59.2184 40.2646 58.8652 40.5381 58.6055C40.8161 58.3411 41.1829 58.209 41.6387 58.209C42.099 58.209 42.4704 58.3457 42.7529 58.6191C43.0355 58.888 43.1768 59.2321 43.1768 59.6514ZM42.4385 59.665C42.4385 59.4098 42.3633 59.2139 42.2129 59.0771C42.0625 58.9359 41.8711 58.8652 41.6387 58.8652C41.4062 58.8652 41.2148 58.9359 41.0645 59.0771C40.9141 59.2139 40.8389 59.4098 40.8389 59.665C40.8389 59.9202 40.9072 60.1185 41.0439 60.2598C41.1807 60.3965 41.3789 60.4648 41.6387 60.4648C41.8757 60.4648 42.0671 60.3965 42.2129 60.2598C42.3633 60.1185 42.4385 59.9202 42.4385 59.665ZM50.71 62.8711C51.0426 62.8711 51.3411 62.8984 51.6055 62.9531L51.4482 64.0059C51.1383 63.9375 50.8649 63.9033 50.6279 63.9033C50.0218 63.9033 49.5023 64.1494 49.0693 64.6416C48.641 65.1338 48.4268 65.7467 48.4268 66.4805V70.5H47.292V63.0078H48.2285L48.3584 64.3955H48.4131C48.6911 63.9079 49.026 63.5319 49.418 63.2676C49.8099 63.0033 50.2406 62.8711 50.71 62.8711ZM57.8398 68.4561C57.8398 69.1533 57.5801 69.6911 57.0605 70.0693C56.541 70.4476 55.8118 70.6367 54.873 70.6367C53.8796 70.6367 53.1048 70.4795 52.5488 70.165V69.1123C52.9089 69.2946 53.2939 69.4382 53.7041 69.543C54.1188 69.6478 54.5176 69.7002 54.9004 69.7002C55.4928 69.7002 55.9486 69.6068 56.2676 69.4199C56.5866 69.2285 56.7461 68.9391 56.7461 68.5518C56.7461 68.2601 56.6185 68.0117 56.3633 67.8066C56.1126 67.597 55.6204 67.3509 54.8867 67.0684C54.1895 66.8086 53.6927 66.583 53.3965 66.3916C53.1048 66.1956 52.8861 65.9746 52.7402 65.7285C52.599 65.4824 52.5283 65.1885 52.5283 64.8467C52.5283 64.236 52.7767 63.7552 53.2734 63.4043C53.7702 63.0488 54.4515 62.8711 55.3174 62.8711C56.124 62.8711 56.9124 63.0352 57.6826 63.3633L57.2793 64.2861C56.5273 63.9762 55.846 63.8213 55.2354 63.8213C54.6976 63.8213 54.292 63.9056 54.0186 64.0742C53.7451 64.2428 53.6084 64.4753 53.6084 64.7715C53.6084 64.972 53.6585 65.1429 53.7588 65.2842C53.8636 65.4255 54.0299 65.5599 54.2578 65.6875C54.4857 65.8151 54.9232 65.9997 55.5703 66.2412C56.459 66.5648 57.0583 66.8906 57.3682 67.2188C57.6826 67.5469 57.8398 67.9593 57.8398 68.4561ZM64.8193 70.5V65.6533C64.8193 65.0426 64.6803 64.5869 64.4023 64.2861C64.1243 63.9854 63.6891 63.835 63.0967 63.835C62.3083 63.835 61.7318 64.0492 61.3672 64.4775C61.0072 64.9059 60.8271 65.6077 60.8271 66.583V70.5H59.6924V59.8633H60.8271V63.083C60.8271 63.4704 60.8089 63.7917 60.7725 64.0469H60.8408C61.0641 63.6868 61.3809 63.4043 61.791 63.1992C62.2057 62.9896 62.6774 62.8848 63.2061 62.8848C64.1221 62.8848 64.8079 63.1035 65.2637 63.541C65.724 63.974 65.9541 64.6644 65.9541 65.6123V70.5H64.8193ZM67.3828 73.8633C66.9499 73.8633 66.599 73.8063 66.3301 73.6924V72.7695C66.6445 72.8607 66.9544 72.9062 67.2598 72.9062C67.6152 72.9062 67.875 72.8083 68.0391 72.6123C68.2077 72.4209 68.292 72.127 68.292 71.7305V63.0078H69.4268V71.6484C69.4268 73.125 68.7454 73.8633 67.3828 73.8633ZM68.1963 60.9775C68.1963 60.7178 68.2601 60.5286 68.3877 60.4102C68.5153 60.2871 68.6748 60.2256 68.8662 60.2256C69.0485 60.2256 69.2057 60.2871 69.3379 60.4102C69.4701 60.5332 69.5361 60.7223 69.5361 60.9775C69.5361 61.2327 69.4701 61.4242 69.3379 61.5518C69.2057 61.6748 69.0485 61.7363 68.8662 61.7363C68.6748 61.7363 68.5153 61.6748 68.3877 61.5518C68.2601 61.4242 68.1963 61.2327 68.1963 60.9775ZM72.8994 63.0078V67.8682C72.8994 68.4788 73.0384 68.9346 73.3164 69.2354C73.5944 69.5361 74.0296 69.6865 74.6221 69.6865C75.4059 69.6865 75.9779 69.4723 76.3379 69.0439C76.7025 68.6156 76.8848 67.916 76.8848 66.9453V63.0078H78.0195V70.5H77.083L76.9189 69.4951H76.8574C76.625 69.8643 76.3014 70.1468 75.8867 70.3428C75.4766 70.5387 75.0072 70.6367 74.4785 70.6367C73.5671 70.6367 72.8835 70.4202 72.4277 69.9873C71.9766 69.5544 71.751 68.8617 71.751 67.9092V63.0078H72.8994ZM81.5674 70.5H80.4326V59.8633H81.5674V70.5Z" fill="#2B2859"/>
<defs>
<clipPath id="clip0">
<rect width="26" height="26" fill="white" transform="translate(47 25.5)"/>
</clipPath>
</defs>
</svg>
