<svg width="232" height="233" viewBox="0 0 232 233" fill="none" xmlns="http://www.w3.org/2000/svg">
<rect x="0.5" y="0.5" width="231" height="232" fill="white"/>
<path opacity="0.6" d="M116.001 24.0005C82.8632 24.0005 56 50.8613 56 84.0012C56 117.136 82.8632 143.999 116.001 143.999C149.137 143.999 176 117.136 176 84.0012C176 50.861 149.137 24.0005 116.001 24.0005Z" fill="#F9C66B"/>
<path d="M151.49 116.567C149.722 109.97 134.582 104.636 115.919 104.636C97.256 104.636 82.278 109.97 80.5095 116.567C79.7213 119.508 78.8259 125.079 78.0604 130.48C88.3991 138.929 101.607 143.999 116.001 143.999C130.394 143.999 143.601 138.929 153.939 130.48C153.174 125.079 152.279 119.508 151.49 116.567Z" fill="#33333B"/>
<path d="M115.94 100.668L106.381 101.938L106.831 105.122L115.93 111.912L125.17 105.122L125.62 101.938L115.94 100.668Z" fill="#D4D6D8"/>
<path d="M125.405 92.2329H106.594C109.529 101.082 106.83 105.123 106.83 105.123L113.339 108.247H118.66L125.169 105.123C125.169 105.123 122.47 101.082 125.405 92.2329Z" fill="#E2A379"/>
<path d="M116 38.8936C105.347 38.8936 96.7109 44.013 96.7109 66.3677C96.7109 73.9296 98.0641 79.8549 100.09 84.428C104.548 94.4888 112.264 98.005 116 98.005C119.736 98.005 127.452 94.4888 131.91 84.428C133.936 79.8549 135.289 73.9296 135.289 66.3677C135.289 44.013 126.653 38.8936 116 38.8936Z" fill="#F4B382"/>
<path d="M118.523 86.338C117.804 86.2318 116 86.9426 116 86.9426C116 86.9426 114.17 86.2337 113.446 86.3428C112.285 86.5174 110.558 88.5082 110.558 88.8371C110.558 88.8371 112.995 90.1068 116 90.1068C119.005 90.1068 121.442 88.8371 121.442 88.8371C121.442 88.8371 119.701 86.5121 118.523 86.338Z" fill="#D6876B"/>
<path d="M117.482 87.9498C117.01 87.9244 116.403 88.3532 116 88.3532C115.534 88.3532 114.837 87.9293 114.301 87.9621C111.12 88.1581 110.558 88.837 110.558 88.837C110.558 88.837 112.995 91.0439 116 91.0439C119.005 91.0439 121.442 88.837 121.442 88.837C121.442 88.837 120.785 88.1271 117.482 87.9498Z" fill="#CC785E"/>
<path d="M125.15 105.122C125.15 105.122 122.994 109.314 115.93 109.314C108.865 109.314 106.85 105.122 106.85 105.122C106.85 105.122 105.153 118.344 116.018 118.344C126.884 118.344 125.15 105.122 125.15 105.122Z" fill="#7F3E09"/>
<path d="M115.94 100.668L106.831 105.122C106.831 105.122 110.901 111.912 115.929 111.912C120.958 111.912 125.169 105.122 125.169 105.122L115.94 100.668Z" fill="#E2A379"/>
<path d="M116 46.9155C121.61 46.9155 126.158 43.8113 126.158 39.9819C126.158 36.1526 121.61 33.0483 116 33.0483C110.39 33.0483 105.842 36.1526 105.842 39.9819C105.842 43.8113 110.39 46.9155 116 46.9155Z" fill="#4C230C"/>
<path d="M116 38.8936C102.133 38.8936 96.0062 44.9574 96.0062 67.3119C96.0062 67.3119 125.674 60.9027 125.674 52.7649C125.674 60.9027 135.994 67.3119 135.994 67.3119C135.994 44.9574 129.866 38.8936 116 38.8936Z" fill="#602F0F"/>
<path d="M97.0593 67.0415C95.2154 67.3569 93.8129 68.1509 94.8531 74.2358C95.8938 80.3207 97.1858 80.6037 99.0295 80.2883L97.0593 67.0415Z" fill="#F4B382"/>
<path d="M134.965 67.0415L132.995 80.2883C134.839 80.6037 136.131 80.3207 137.171 74.2358C138.211 68.1509 136.809 67.3569 134.965 67.0415Z" fill="#F4B382"/>
<path d="M98.2637 68.2791C98.1605 67.6264 98.1452 67.0297 98.1624 66.5506C98.1873 65.861 98.2799 65.417 98.2799 65.417L96.0125 66.2635C96.0084 66.6089 96.0062 66.9581 96.0062 67.3115C96.0062 67.3115 96.251 67.2329 96.6832 67.0832C96.6629 67.0902 96.6411 67.0979 96.6215 67.1044C96.933 67.6341 97.3236 68.4472 97.6995 69.6493C97.6995 69.6498 98.5852 70.3095 98.2637 68.2791Z" fill="#602F0F"/>
<path d="M135.987 66.2606L133.729 65.4175C133.729 65.4175 133.822 65.8637 133.847 66.5561C133.864 67.0345 133.848 67.629 133.745 68.2796C133.424 70.3098 134.31 69.6502 134.31 69.6502C134.685 68.4506 135.073 67.6375 135.381 67.1069C135.773 67.2416 135.993 67.3122 135.993 67.3122C135.994 66.9574 135.991 66.6069 135.987 66.2606Z" fill="#602F0F"/>
<path d="M115.929 108.246L106.849 105.122C106.849 105.122 111.74 138.74 116.018 138.74C120.296 138.74 125.15 105.122 125.15 105.122L115.929 108.246Z" fill="#C7C8C9"/>
<path d="M115.929 108.246L105.842 105.122C105.842 105.122 115.995 138.74 116.018 138.74L115.929 108.246Z" fill="#D4D6D8"/>
<path d="M125.619 101.938L115.994 108.246C115.994 108.246 124.225 110.768 124.266 110.728L129.947 105.698L125.619 101.938Z" fill="#F3FAFF"/>
<path d="M106.38 101.938L102.053 105.698L107.734 110.728C107.774 110.768 115.995 108.247 115.995 108.247L106.38 101.938Z" fill="#F3FAFF"/>
<path d="M116 142.389L115.995 138.741C115.995 138.741 107.774 110.768 107.734 110.728L103.544 104.387L100.521 105.944L102.456 119.312L106.406 118.425L103.504 121.972L116 142.389Z" fill="#4A4A54"/>
<path d="M131.479 105.943L128.456 104.386L124.266 110.727C124.226 110.768 116.005 138.74 116.005 138.74L116 142.388L128.496 121.972L125.594 118.424L129.544 119.311L131.479 105.943Z" fill="#4A4A54"/>
<path d="M91.0391 202L89.3281 197.242H82.7773L81.1016 202H78.1484L84.5586 184.797H87.6055L94.0156 202H91.0391ZM88.5898 194.828L86.9844 190.164C86.8672 189.852 86.7031 189.359 86.4922 188.688C86.2891 188.016 86.1484 187.523 86.0703 187.211C85.8594 188.172 85.5508 189.223 85.1445 190.363L83.5977 194.828H88.5898ZM100.355 202.234C98.7383 202.234 97.4766 201.648 96.5703 200.477C95.6641 199.305 95.2109 197.66 95.2109 195.543C95.2109 193.418 95.668 191.766 96.582 190.586C97.5039 189.398 98.7773 188.805 100.402 188.805C102.105 188.805 103.402 189.434 104.293 190.691H104.434C104.301 189.762 104.234 189.027 104.234 188.488V183.766H107V202H104.844L104.363 200.301H104.234C103.352 201.59 102.059 202.234 100.355 202.234ZM101.094 200.008C102.227 200.008 103.051 199.691 103.566 199.059C104.082 198.418 104.348 197.383 104.363 195.953V195.566C104.363 193.934 104.098 192.773 103.566 192.086C103.035 191.398 102.203 191.055 101.07 191.055C100.102 191.055 99.3555 191.449 98.832 192.238C98.3086 193.02 98.0469 194.137 98.0469 195.59C98.0469 197.027 98.3008 198.125 98.8086 198.883C99.3164 199.633 100.078 200.008 101.094 200.008ZM121.859 202H119.094V194.008C119.094 193.016 118.906 192.277 118.531 191.793C118.156 191.301 117.57 191.055 116.773 191.055C115.711 191.055 114.93 191.402 114.43 192.098C113.938 192.785 113.691 193.934 113.691 195.543V202H110.938V189.039H113.094L113.48 190.738H113.621C113.98 190.121 114.5 189.645 115.18 189.309C115.867 188.973 116.621 188.805 117.441 188.805C119.434 188.805 120.754 189.484 121.402 190.844H121.59C121.973 190.203 122.512 189.703 123.207 189.344C123.902 188.984 124.699 188.805 125.598 188.805C127.145 188.805 128.27 189.195 128.973 189.977C129.684 190.758 130.039 191.949 130.039 193.551V202H127.285V194.008C127.285 193.016 127.094 192.277 126.711 191.793C126.336 191.301 125.75 191.055 124.953 191.055C123.883 191.055 123.098 191.391 122.598 192.062C122.105 192.727 121.859 193.75 121.859 195.133V202ZM136.637 202H133.883V189.039H136.637V202ZM133.719 185.605C133.719 185.113 133.852 184.734 134.117 184.469C134.391 184.203 134.777 184.07 135.277 184.07C135.762 184.07 136.137 184.203 136.402 184.469C136.676 184.734 136.812 185.113 136.812 185.605C136.812 186.074 136.676 186.445 136.402 186.719C136.137 186.984 135.762 187.117 135.277 187.117C134.777 187.117 134.391 186.984 134.117 186.719C133.852 186.445 133.719 186.074 133.719 185.605ZM151.988 202H149.223V194.031C149.223 193.031 149.02 192.285 148.613 191.793C148.215 191.301 147.578 191.055 146.703 191.055C145.539 191.055 144.688 191.398 144.148 192.086C143.609 192.773 143.34 193.926 143.34 195.543V202H140.586V189.039H142.742L143.129 190.738H143.27C143.66 190.121 144.215 189.645 144.934 189.309C145.652 188.973 146.449 188.805 147.324 188.805C150.434 188.805 151.988 190.387 151.988 193.551V202Z" fill="#2B2859"/>
<rect x="0.5" y="0.5" width="231" height="232" stroke="#E0E6EF"/>
</svg>
