<svg width="232" height="233" viewBox="0 0 232 233" fill="none" xmlns="http://www.w3.org/2000/svg">
<rect x="0.5" y="0.5" width="231" height="232" fill="white"/>
<path opacity="0.6" d="M116.001 24.0005C82.8632 24.0005 56 50.8613 56 84.0012C56 117.136 82.8632 143.999 116.001 143.999C149.137 143.999 176 117.136 176 84.0012C176 50.861 149.137 24.0005 116.001 24.0005Z" fill="#F9C66B"/>
<path d="M157.222 116.567C155.167 109.97 137.583 104.636 115.906 104.636C94.2288 104.636 76.8316 109.97 74.7775 116.567C74.139 118.618 73.4401 121.948 72.774 125.607C83.6891 136.944 99.02 143.999 116 143.999C132.98 143.999 148.31 136.944 159.225 125.608C158.559 121.948 157.86 118.618 157.222 116.567Z" fill="#2B2859"/>
<path d="M115.929 111.589L106.849 105.122C106.849 105.122 111.74 138.74 116.018 138.74C120.296 138.74 125.15 105.122 125.15 105.122L115.929 111.589Z" fill="#D4D6D8"/>
<path d="M115.94 100.668L106.381 101.938L106.831 105.122L115.93 111.912L125.17 105.122L125.62 101.938L115.94 100.668Z" fill="#D4D6D8"/>
<path d="M125.405 92.2329H106.594C109.529 101.082 106.83 105.123 106.83 105.123L113.339 106.589H118.66L125.169 105.123C125.169 105.123 122.47 101.082 125.405 92.2329Z" fill="#7F3E09"/>
<path d="M125.619 101.938L124.223 110.766L129.947 105.698L125.619 101.938Z" fill="#F3FAFF"/>
<path d="M106.38 101.938L102.053 105.698L107.777 110.766L106.38 101.938Z" fill="#F3FAFF"/>
<path d="M125.619 101.938L115.994 106.589C115.994 106.589 124.225 110.768 124.266 110.728L129.947 105.698L125.619 101.938Z" fill="#F3FAFF"/>
<path d="M106.38 101.938L102.053 105.698L107.734 110.728C107.774 110.768 115.995 106.589 115.995 106.589L106.38 101.938Z" fill="#F3FAFF"/>
<path d="M115.992 106.588L112.191 108.509L115.992 114.701L119.794 108.509L115.992 106.588Z" fill="#2B2859"/>
<path d="M116.975 111.531H115.006L112.282 131.917C113.489 135.922 114.78 138.74 116.018 138.74C117.248 138.74 118.527 135.956 119.723 131.994L116.975 111.531Z" fill="#2B2859"/>
<path d="M116 142.389L115.995 138.741C115.995 138.741 107.774 110.768 107.734 110.728L103.544 104.387L100.521 105.944L102.456 119.312L106.406 118.425L103.504 121.972L116 142.389Z" fill="#413D7D"/>
<path d="M131.479 105.943L128.456 104.386L124.266 110.727C124.226 110.768 116.005 138.74 116.005 138.74L116 142.388L128.496 121.972L125.594 118.424L129.544 119.311L131.479 105.943Z" fill="#413D7D"/>
<path d="M116 38.8936C104.212 38.8936 94.6552 44.013 94.6552 66.3677C94.6552 73.9296 96.1525 79.8549 98.3948 84.428C103.328 94.4888 111.866 98.005 116 98.005C120.134 98.005 128.672 94.4888 133.605 84.428C135.847 79.8549 137.345 73.9296 137.345 66.3677C137.345 44.013 127.788 38.8936 116 38.8936Z" fill="#8E4809"/>
<path d="M116 38.8936C99.9163 38.8936 94.6552 44.013 94.6552 66.3677C94.6552 66.3677 95.6306 58.9976 99.2374 55.3399C102.411 52.1213 107.623 52.5586 116 52.5586C116.622 52.5586 117.226 52.5569 117.814 52.5547C118.205 52.5532 122 55.3399 122 55.3399C122 55.3399 120.402 52.5472 121.079 52.5508C126.682 52.5803 130.436 52.9264 132.911 55.4925C136.396 59.1054 137.345 66.3679 137.345 66.3679C137.345 44.013 132.084 38.8936 116 38.8936Z" fill="#261D17"/>
<path d="M95.0346 67.0552C92.9938 67.4042 91.4415 68.2831 92.5928 75.0176C93.7443 81.7524 95.1741 82.0656 97.2152 81.7166L95.0346 67.0552Z" fill="#8E4809"/>
<path d="M136.988 67.0552L134.808 81.7166C136.848 82.0656 138.278 81.7524 139.43 75.0176C140.581 68.2831 139.029 67.4042 136.988 67.0552Z" fill="#8E4809"/>
<path d="M136.815 58.0454L132.47 66.2836C132.47 66.2836 133.71 68.3999 133.649 73.9626L134.587 74.4161L135.252 67.7347C135.252 66.6464 137.369 67.11 137.369 67.11C137.546 62.5549 136.815 58.0454 136.815 58.0454Z" fill="#261D17"/>
<path d="M99.5253 66.2836L95.1805 58.0454C95.1805 58.0454 94.4499 62.5551 94.6269 67.11C94.6269 67.11 96.7439 66.6464 96.7439 67.7347L97.409 74.4161L98.3462 73.9626C98.2857 68.3999 99.5253 66.2836 99.5253 66.2836Z" fill="#261D17"/>
<path d="M33.2891 184.867H38.375C40.7344 184.867 42.4375 185.211 43.4844 185.898C44.5391 186.586 45.0664 187.672 45.0664 189.156C45.0664 190.156 44.8086 190.988 44.293 191.652C43.7773 192.316 43.0352 192.734 42.0664 192.906V193.023C43.2695 193.25 44.1523 193.699 44.7148 194.371C45.2852 195.035 45.5703 195.938 45.5703 197.078C45.5703 198.617 45.0312 199.824 43.9531 200.699C42.8828 201.566 41.3906 202 39.4766 202H33.2891V184.867ZM36.0898 191.945H38.7852C39.957 191.945 40.8125 191.762 41.3516 191.395C41.8906 191.02 42.1602 190.387 42.1602 189.496C42.1602 188.691 41.8672 188.109 41.2812 187.75C40.7031 187.391 39.7812 187.211 38.5156 187.211H36.0898V191.945ZM36.0898 194.219V199.645H39.0664C40.2383 199.645 41.1211 199.422 41.7148 198.977C42.3164 198.523 42.6172 197.812 42.6172 196.844C42.6172 195.953 42.3125 195.293 41.7031 194.863C41.0938 194.434 40.168 194.219 38.9258 194.219H36.0898ZM46.8711 189.039H49.8711L52.5078 196.387C52.9062 197.434 53.1719 198.418 53.3047 199.34H53.3984C53.4688 198.91 53.5977 198.391 53.7852 197.781C53.9727 197.164 54.9648 194.25 56.7617 189.039H59.7383L54.1953 203.723C53.1875 206.418 51.5078 207.766 49.1562 207.766C48.5469 207.766 47.9531 207.699 47.375 207.566V205.387C47.7891 205.48 48.2617 205.527 48.793 205.527C50.1211 205.527 51.0547 204.758 51.5938 203.219L52.0742 202L46.8711 189.039ZM66.0781 202.234C64.4609 202.234 63.1992 201.648 62.293 200.477C61.3867 199.305 60.9336 197.66 60.9336 195.543C60.9336 193.418 61.3906 191.766 62.3047 190.586C63.2266 189.398 64.5 188.805 66.125 188.805C67.8281 188.805 69.125 189.434 70.0156 190.691H70.1562C70.0234 189.762 69.957 189.027 69.957 188.488V183.766H72.7227V202H70.5664L70.0859 200.301H69.957C69.0742 201.59 67.7812 202.234 66.0781 202.234ZM66.8164 200.008C67.9492 200.008 68.7734 199.691 69.2891 199.059C69.8047 198.418 70.0703 197.383 70.0859 195.953V195.566C70.0859 193.934 69.8203 192.773 69.2891 192.086C68.7578 191.398 67.9258 191.055 66.793 191.055C65.8242 191.055 65.0781 191.449 64.5547 192.238C64.0312 193.02 63.7695 194.137 63.7695 195.59C63.7695 197.027 64.0234 198.125 64.5312 198.883C65.0391 199.633 65.8008 200.008 66.8164 200.008ZM82.3203 202.234C80.3047 202.234 78.7266 201.648 77.5859 200.477C76.4531 199.297 75.8867 197.676 75.8867 195.613C75.8867 193.496 76.4141 191.832 77.4688 190.621C78.5234 189.41 79.9727 188.805 81.8164 188.805C83.5273 188.805 84.8789 189.324 85.8711 190.363C86.8633 191.402 87.3594 192.832 87.3594 194.652V196.141H78.7227C78.7617 197.398 79.1016 198.367 79.7422 199.047C80.3828 199.719 81.2852 200.055 82.4492 200.055C83.2148 200.055 83.9258 199.984 84.582 199.844C85.2461 199.695 85.957 199.453 86.7148 199.117V201.355C86.043 201.676 85.3633 201.902 84.6758 202.035C83.9883 202.168 83.2031 202.234 82.3203 202.234ZM81.8164 190.891C80.9414 190.891 80.2383 191.168 79.707 191.723C79.1836 192.277 78.8711 193.086 78.7695 194.148H84.6523C84.6367 193.078 84.3789 192.27 83.8789 191.723C83.3789 191.168 82.6914 190.891 81.8164 190.891ZM93.2422 202H90.4883V183.766H93.2422V202ZM105.898 198.309C105.898 199.574 105.438 200.547 104.516 201.227C103.594 201.898 102.273 202.234 100.555 202.234C98.8281 202.234 97.4414 201.973 96.3945 201.449V199.07C97.918 199.773 99.3359 200.125 100.648 200.125C102.344 200.125 103.191 199.613 103.191 198.59C103.191 198.262 103.098 197.988 102.91 197.77C102.723 197.551 102.414 197.324 101.984 197.09C101.555 196.855 100.957 196.59 100.191 196.293C98.6992 195.715 97.6875 195.137 97.1562 194.559C96.6328 193.98 96.3711 193.23 96.3711 192.309C96.3711 191.199 96.8164 190.34 97.707 189.73C98.6055 189.113 99.8242 188.805 101.363 188.805C102.887 188.805 104.328 189.113 105.688 189.73L104.797 191.805C103.398 191.227 102.223 190.938 101.27 190.938C99.8164 190.938 99.0898 191.352 99.0898 192.18C99.0898 192.586 99.2773 192.93 99.6523 193.211C100.035 193.492 100.863 193.879 102.137 194.371C103.207 194.785 103.984 195.164 104.469 195.508C104.953 195.852 105.312 196.25 105.547 196.703C105.781 197.148 105.898 197.684 105.898 198.309ZM113.258 202.234C111.641 202.234 110.379 201.648 109.473 200.477C108.566 199.305 108.113 197.66 108.113 195.543C108.113 193.418 108.57 191.766 109.484 190.586C110.406 189.398 111.68 188.805 113.305 188.805C115.008 188.805 116.305 189.434 117.195 190.691H117.336C117.203 189.762 117.137 189.027 117.137 188.488V183.766H119.902V202H117.746L117.266 200.301H117.137C116.254 201.59 114.961 202.234 113.258 202.234ZM113.996 200.008C115.129 200.008 115.953 199.691 116.469 199.059C116.984 198.418 117.25 197.383 117.266 195.953V195.566C117.266 193.934 117 192.773 116.469 192.086C115.938 191.398 115.105 191.055 113.973 191.055C113.004 191.055 112.258 191.449 111.734 192.238C111.211 193.02 110.949 194.137 110.949 195.59C110.949 197.027 111.203 198.125 111.711 198.883C112.219 199.633 112.98 200.008 113.996 200.008ZM126.594 202H123.84V189.039H126.594V202ZM123.676 185.605C123.676 185.113 123.809 184.734 124.074 184.469C124.348 184.203 124.734 184.07 125.234 184.07C125.719 184.07 126.094 184.203 126.359 184.469C126.633 184.734 126.77 185.113 126.77 185.605C126.77 186.074 126.633 186.445 126.359 186.719C126.094 186.984 125.719 187.117 125.234 187.117C124.734 187.117 124.348 186.984 124.074 186.719C123.809 186.445 123.676 186.074 123.676 185.605ZM137.117 188.805C137.672 188.805 138.129 188.844 138.488 188.922L138.219 191.488C137.828 191.395 137.422 191.348 137 191.348C135.898 191.348 135.004 191.707 134.316 192.426C133.637 193.145 133.297 194.078 133.297 195.227V202H130.543V189.039H132.699L133.062 191.324H133.203C133.633 190.551 134.191 189.938 134.879 189.484C135.574 189.031 136.32 188.805 137.117 188.805ZM146.562 202.234C144.547 202.234 142.969 201.648 141.828 200.477C140.695 199.297 140.129 197.676 140.129 195.613C140.129 193.496 140.656 191.832 141.711 190.621C142.766 189.41 144.215 188.805 146.059 188.805C147.77 188.805 149.121 189.324 150.113 190.363C151.105 191.402 151.602 192.832 151.602 194.652V196.141H142.965C143.004 197.398 143.344 198.367 143.984 199.047C144.625 199.719 145.527 200.055 146.691 200.055C147.457 200.055 148.168 199.984 148.824 199.844C149.488 199.695 150.199 199.453 150.957 199.117V201.355C150.285 201.676 149.605 201.902 148.918 202.035C148.23 202.168 147.445 202.234 146.562 202.234ZM146.059 190.891C145.184 190.891 144.48 191.168 143.949 191.723C143.426 192.277 143.113 193.086 143.012 194.148H148.895C148.879 193.078 148.621 192.27 148.121 191.723C147.621 191.168 146.934 190.891 146.059 190.891ZM157.391 195.156L158.949 193.211L162.863 189.039H166.039L160.824 194.605L166.367 202H163.133L158.973 196.316L157.461 197.559V202H154.73V183.766H157.461V192.66L157.32 195.156H157.391ZM173.293 200.008C173.965 200.008 174.637 199.902 175.309 199.691V201.766C175.004 201.898 174.609 202.008 174.125 202.094C173.648 202.188 173.152 202.234 172.637 202.234C170.027 202.234 168.723 200.859 168.723 198.109V191.125H166.953V189.906L168.852 188.898L169.789 186.156H171.488V189.039H175.18V191.125H171.488V198.062C171.488 198.727 171.652 199.219 171.98 199.539C172.316 199.852 172.754 200.008 173.293 200.008ZM189.406 195.496C189.406 197.613 188.863 199.266 187.777 200.453C186.691 201.641 185.18 202.234 183.242 202.234C182.117 202.234 181.141 202.012 180.312 201.566L179.422 202.844L177.84 201.789L178.801 200.418C177.691 199.207 177.137 197.566 177.137 195.496C177.137 193.395 177.676 191.754 178.754 190.574C179.832 189.395 181.352 188.805 183.312 188.805C184.438 188.805 185.445 189.051 186.336 189.543L187.145 188.371L188.738 189.449L187.824 190.715C188.879 191.902 189.406 193.496 189.406 195.496ZM179.973 195.496C179.973 196.551 180.117 197.406 180.406 198.062L184.988 191.512C184.52 191.207 183.945 191.055 183.266 191.055C182.109 191.055 181.27 191.438 180.746 192.203C180.23 192.969 179.973 194.066 179.973 195.496ZM186.57 195.496C186.57 194.551 186.441 193.758 186.184 193.117L181.648 199.598C182.07 199.855 182.617 199.984 183.289 199.984C185.477 199.984 186.57 198.488 186.57 195.496ZM199.156 188.805C199.711 188.805 200.168 188.844 200.527 188.922L200.258 191.488C199.867 191.395 199.461 191.348 199.039 191.348C197.938 191.348 197.043 191.707 196.355 192.426C195.676 193.145 195.336 194.078 195.336 195.227V202H192.582V189.039H194.738L195.102 191.324H195.242C195.672 190.551 196.23 189.938 196.918 189.484C197.613 189.031 198.359 188.805 199.156 188.805Z" fill="#2B2859"/>
<rect x="0.5" y="0.5" width="231" height="232" stroke="#E0E6EF"/>
</svg>
