<svg width="1440" height="105" viewBox="0 0 1440 105" fill="none" xmlns="http://www.w3.org/2000/svg">
<rect width="1440" height="105" fill="white"/>
<line y1="104.5" x2="1440" y2="104.5" stroke="#E0E6EF"/>
<g clip-path="url(#clip0)">
<path d="M93.1786 34.4351L92.2922 33.8864C90.9416 33 89.5065 32.2403 87.987 31.6071C87.3539 31.3539 86.7208 31.1006 86.0877 30.8896C84.5682 30.3831 82.9643 29.961 81.4026 29.7078C80.7273 29.6234 80.052 29.539 79.3344 29.4545C77.7305 29.3279 76.0844 29.3279 74.4805 29.4545C73.8052 29.4968 73.0877 29.5812 72.4123 29.7078C70.8085 29.961 69.2468 30.3409 67.6851 30.8896C67.052 31.1006 66.4188 31.3539 65.7857 31.6071C64.3085 32.2403 62.8734 33 61.4805 33.8864L60.5942 34.4351L56.2468 26.1201L57.0065 25.6558C58.4838 24.7273 60.0033 23.9253 61.5649 23.25L62.3669 22.8701L63.9286 25.8669C64.3929 25.6981 64.8149 25.5292 65.2792 25.3604L64.4773 22.0682L65.3214 21.7727C66.9675 21.2662 68.6136 20.8442 70.302 20.5487L71.1883 20.3799L71.9903 23.6721L72.2435 23.6299C72.6234 23.5877 73.0455 23.5455 73.4253 23.5032V20.1266L74.3117 20.0844C75.1559 20.0422 76.0422 20 76.8864 20C77.7305 20 78.6169 20.0422 79.4611 20.0844L80.3474 20.1266V23.5032C80.8117 23.5455 81.276 23.5877 81.7825 23.6721L82.5844 20.3799L83.4708 20.5487C85.1591 20.8442 86.8474 21.2662 88.4513 21.7727L89.2955 22.0682L88.4935 25.3604C88.9578 25.5292 89.3799 25.6981 89.8442 25.8669L91.4059 22.8701L92.2078 23.25C93.7695 23.9675 95.289 24.7695 96.7663 25.6558L97.526 26.1201L93.1786 34.4351ZM58.7792 26.8377L61.3539 31.7338C62.5357 31.0162 63.7598 30.4253 65.026 29.8766H65.0682C65.7435 29.5812 66.4188 29.3279 67.0942 29.1169C68.7403 28.5682 70.4286 28.1039 72.1169 27.8506C72.8344 27.724 73.552 27.6396 74.3117 27.5974C76.0422 27.4708 77.7727 27.4708 79.5033 27.5974C80.2208 27.6818 80.9805 27.7662 81.6981 27.8506C83.3864 28.1039 85.0747 28.526 86.7208 29.0747C87.3961 29.3279 88.0714 29.5812 88.7468 29.8344C90.013 30.3831 91.237 31.0162 92.4611 31.6916L95.0357 26.7955C94.1494 26.289 93.2208 25.7825 92.2922 25.3604L90.7305 28.3149L89.9286 27.9773L89.5909 27.8506C88.789 27.513 87.9448 27.1753 87.1007 26.9221L86.2565 26.6266L87.0585 23.3766C86.0455 23.0812 85.0747 22.8279 84.0617 22.6169L83.2598 25.8669L82.3734 25.7403C81.3604 25.5714 80.3474 25.4448 79.3766 25.3604L78.4903 25.276V21.9416C77.4773 21.8994 76.4221 21.8994 75.4091 21.9416V25.276L74.5227 25.3604C73.8474 25.4026 73.2143 25.487 72.5812 25.5714C72.2435 25.6136 71.8636 25.6558 71.526 25.7403L70.6396 25.8669L69.8377 22.6169C68.8247 22.8279 67.8117 23.0812 66.8409 23.3766L67.6429 26.6266L66.7987 26.9221C65.9546 27.2175 65.1104 27.513 64.3085 27.8506L63.9708 27.9773L63.1688 28.3149L61.6072 25.3604C60.5942 25.7825 59.6656 26.289 58.7792 26.8377Z" fill="#2A2859"/>
<path d="M76.8864 85C62.0292 85 50 72.9708 50 58.1559C50 43.341 62.0292 31.2695 76.8442 31.2695C91.6591 31.2695 103.731 43.2988 103.731 58.1137C103.731 65.2468 100.903 72.0845 95.8799 77.1494C90.8571 82.1721 83.9773 85 76.8864 85ZM76.8864 33.2533C63.1266 33.2533 51.9838 44.3962 51.9838 58.1137C51.9838 71.8312 63.1266 83.0163 76.8442 83.0163C90.6039 83.0163 101.747 71.8734 101.747 58.1559C101.747 51.5715 99.1299 45.2403 94.4448 40.5552C89.8019 35.8702 83.4708 33.2111 76.8864 33.2533Z" fill="#2A2859"/>
<path d="M71.6948 50.474C69.5844 47.6461 70.1753 43.5942 73.0033 41.4838C75.8312 39.3734 79.8831 39.9643 81.9935 42.7922C83.6818 45.0714 83.6818 48.1948 81.9935 50.474L83.4286 51.5292C84.4838 50.1364 85.0747 48.4059 85.0747 46.6331C85.0747 42.1169 81.4026 38.4448 76.8864 38.4448C72.3701 38.4448 68.6981 42.1169 68.6981 46.6331C68.6981 48.4059 69.289 50.1364 70.3442 51.5292L71.6948 50.474Z" fill="#2A2859"/>
<path d="M76.8442 52.4155C78.6169 52.4155 80.052 50.9804 80.052 49.2077V48.87H81.1072V46.844C81.1072 44.4804 79.2078 42.5811 76.8442 42.5811C74.4805 42.5811 72.5812 44.4804 72.5812 46.844V48.87H73.6364V49.2077C73.6364 50.9804 75.0714 52.4155 76.8442 52.4155ZM74.3539 46.8862C74.3539 45.4934 75.4513 44.396 76.8442 44.396C78.237 44.396 79.3344 45.4934 79.3344 46.8862V48.9122H78.5747V49.2499C78.6169 50.2207 77.8994 51.0226 76.9286 51.0648C75.9578 51.107 75.1559 50.3895 75.1136 49.4187C75.1136 49.3765 75.1136 49.2921 75.1136 49.2499V48.9122H74.3539V46.8862Z" fill="#2A2859"/>
<path d="M60.9741 59.3379H58.526V61.8281H60.9741V59.3379Z" fill="#2A2859"/>
<path d="M96.7241 57.4385V58.7469H97.9903L94.5715 62.1658V56.1723L95.4578 57.0586L96.3864 56.1301L93.8961 53.6398L91.4059 56.1301L92.3344 57.0586L93.2208 56.1723V62.1236L89.802 58.7047H91.026V57.3963H87.5228V60.9417H88.8312V59.6755L91.4903 62.3768H86.0877L85.539 61.8703L85.0747 57.4807C85.0325 57.2275 84.7793 54.9904 82.9221 54.0197H82.8799L80.9806 53.2599L80.6851 53.1333L80.3896 53.2177C79.2078 53.5132 78.026 53.6398 76.8442 53.5976C75.6624 53.6398 74.4383 53.5132 73.2987 53.2177L73.0033 53.1333L70.8085 53.9775H70.7663C68.9091 54.9482 68.6137 57.1852 68.6137 57.4385L68.1072 61.9969L67.6851 62.3346H65.828C65.9968 61.7437 66.0812 61.1528 66.0812 60.5619C66.0812 57.0586 63.2111 54.2307 59.7078 54.2729C56.2046 54.2729 53.3767 57.143 53.4189 60.6463C53.4189 63.7697 55.6981 66.3865 58.7793 66.893H58.8637C59.0325 66.9352 59.2013 66.9352 59.3702 66.9352L67.6007 67.7794C67.3052 70.5651 66.7565 73.3086 65.9546 76.0099L66.7987 76.3054L67.6429 76.5586C68.487 73.7307 69.078 70.8184 69.3734 67.906L71.2306 66.3443L70.9351 77.8249L71.6948 77.9515C75.1559 78.5424 78.7013 78.5424 82.2046 77.9515L82.9643 77.8249L82.6689 66.3865L84.526 67.9482C84.8215 70.8606 85.4124 73.7729 86.2565 76.6008L87.9448 76.0521C87.1429 73.3508 86.5942 70.6073 86.2987 67.8216L94.5715 67.0619V64.1917L98.9611 59.8021V61.0684H100.27V57.5651L96.7241 57.4385ZM76.8442 55.4125C78.1104 55.4547 79.3767 55.2859 80.6429 55.0327L82.1624 55.6236C83.1754 56.1723 83.3442 57.6495 83.3442 57.6495L83.7241 61.1106H81.5715C80.7273 61.1106 79.8409 60.8995 79.1234 60.4352C78.5747 60.0132 78.0682 59.5489 77.6461 59.0002L74.6072 55.2859C75.3669 55.3703 76.1267 55.4125 76.8442 55.4125ZM59.75 65.1625H59.539L59.0747 65.1203C56.5844 64.7404 54.8539 62.3768 55.276 59.8865C55.6559 57.3963 58.0195 55.6658 60.5098 56.0878C63 56.4677 64.7306 58.8314 64.3085 61.3216C63.9286 63.5164 61.987 65.1625 59.75 65.1625ZM71.2728 63.9385L68.7403 66.0911L63.6754 65.5846C64.1818 65.1625 64.6461 64.6982 65.026 64.1495H68.3604L71.315 61.6593L71.2728 63.9385ZM71.3994 59.2956L70.0909 60.393L70.3864 57.6917V57.6495C70.3864 57.6495 70.513 56.1723 71.5682 55.6236L72.4124 55.2859L73.9318 57.143L71.3994 59.2956ZM76.8864 76.6008C75.4935 76.6008 74.1007 76.5164 72.75 76.3054L72.8344 72.5489L73.1299 60.1398L75.0293 58.5359L76.2955 60.0976C76.8442 60.8151 77.5195 61.4482 78.237 61.9547C78.9968 62.419 79.8832 62.7145 80.7695 62.8411L81.1072 76.3054C79.7143 76.4742 78.2793 76.5586 76.8864 76.6008ZM92.7987 65.3736L85.1591 66.0911L81.3604 62.8833H81.6559H84.1461L85.5812 64.1495H92.8409L92.7987 65.3736Z" fill="#2A2859"/>
<path d="M118.756 56.9318C118.756 50.3896 122.893 46.3799 127.958 46.3799C133.023 46.3799 137.159 50.3896 137.159 56.9318C137.159 63.7273 133.023 67.7792 127.958 67.7792C122.893 67.7792 118.756 63.7273 118.756 56.9318ZM134.542 56.9318C134.542 51.276 131.63 48.7435 127.958 48.7435C124.286 48.7435 121.373 51.276 121.373 56.9318C121.373 62.5877 124.412 65.4156 127.958 65.4156C131.503 65.4156 134.542 62.5877 134.542 56.9318Z" fill="#2A2859"/>
<path d="M145.896 52.2891C148.682 52.2891 150.708 53.5131 151.468 55.4969L149.61 56.4254C148.977 55.117 147.627 54.3572 145.812 54.3572C143.912 54.3572 142.604 55.117 142.604 56.3832C142.604 57.4806 143.321 58.1137 144.925 58.4936L147.078 58.9157C150.328 59.5488 151.89 61.0261 151.89 63.2631C151.89 65.9644 149.526 67.7793 146.023 67.7793C142.984 67.7793 140.789 66.5975 139.734 64.4027L141.591 63.4319C142.351 64.9092 143.828 65.7534 145.938 65.7534C148.049 65.7534 149.526 64.8248 149.526 63.3897C149.526 62.1657 148.808 61.4482 147.078 61.1105L144.503 60.604C141.718 60.0553 140.24 58.6202 140.24 56.552C140.282 54.104 142.604 52.2891 145.896 52.2891Z" fill="#2A2859"/>
<path d="M159.36 67.6948C156.828 67.6948 155.604 66.1331 155.604 63.7272V46.6753H158.052V63.6428C158.052 64.9513 158.769 65.5844 159.951 65.5844C160.247 65.5844 160.542 65.5422 160.838 65.4578V67.5681C160.373 67.6104 159.867 67.6948 159.36 67.6948Z" fill="#2A2859"/>
<path d="M162.906 60.0131C162.906 55.328 165.945 52.2891 169.786 52.2891C173.627 52.2891 176.623 55.328 176.623 60.0131C176.623 64.7404 173.542 67.8215 169.786 67.8215C166.029 67.8215 162.906 64.7404 162.906 60.0131ZM174.091 60.0131C174.091 56.2144 172.107 54.3995 169.786 54.3995C167.464 54.3995 165.438 56.1722 165.438 60.0131C165.438 63.854 167.38 65.7111 169.786 65.7111C172.192 65.7111 174.091 63.8118 174.091 60.0131Z" fill="#2A2859"/>
</g>
<defs>
<clipPath id="clip0">
<rect width="126.623" height="65" fill="white" transform="translate(50 20)"/>
</clipPath>
</defs>
</svg>
