<svg width="232" height="233" viewBox="0 0 232 233" fill="none" xmlns="http://www.w3.org/2000/svg">
<rect x="0.5" y="0.5" width="231" height="232" fill="white"/>
<path opacity="0.6" d="M116.001 24.001C82.8632 24.001 56 50.8618 56 84.0017C56 117.137 82.8632 144 116.001 144C149.137 144 176 117.137 176 84.0017C176 50.8615 149.137 24.001 116.001 24.001Z" fill="#F9C66B"/>
<path d="M157.222 116.567C155.167 109.97 137.583 104.636 115.906 104.636C94.2288 104.636 76.8316 109.97 74.7775 116.567C74.139 118.618 73.4401 121.948 72.774 125.607C83.6891 136.944 99.02 143.999 116 143.999C132.98 143.999 148.31 136.944 159.225 125.608C158.559 121.948 157.86 118.618 157.222 116.567Z" fill="#33333B"/>
<path d="M115.929 111.589L106.849 105.122C106.849 105.122 111.74 138.74 116.018 138.74C120.296 138.74 125.15 105.122 125.15 105.122L115.929 111.589Z" fill="#D4D6D8"/>
<path d="M115.94 100.668L106.381 101.938L106.831 105.122L115.93 111.912L125.17 105.122L125.62 101.938L115.94 100.668Z" fill="#D4D6D8"/>
<path d="M125.406 92.2329H106.594C109.529 101.082 106.83 105.123 106.83 105.123L113.339 106.589H118.66L125.169 105.123C125.169 105.123 122.47 101.082 125.406 92.2329Z" fill="#E2A379"/>
<path d="M125.619 101.938L124.223 110.766L129.947 105.698L125.619 101.938Z" fill="#F3FAFF"/>
<path d="M106.38 101.938L102.053 105.698L107.777 110.766L106.38 101.938Z" fill="#F3FAFF"/>
<path d="M125.619 101.938L115.994 106.589C115.994 106.589 124.225 110.768 124.266 110.728L129.947 105.698L125.619 101.938Z" fill="#F3FAFF"/>
<path d="M106.38 101.938L102.053 105.698L107.734 110.728C107.774 110.768 115.995 106.589 115.995 106.589L106.38 101.938Z" fill="#F3FAFF"/>
<path d="M115.992 106.588L112.191 108.509L115.992 114.701L119.794 108.509L115.992 106.588Z" fill="#86B4D1"/>
<path d="M116.975 111.531H115.006L112.282 131.917C113.489 135.922 114.78 138.74 116.018 138.74C117.248 138.74 118.527 135.956 119.723 131.994L116.975 111.531Z" fill="#86B4D1"/>
<path d="M116 142.389L115.995 138.741C115.995 138.741 107.774 110.768 107.734 110.728L103.544 104.387L100.521 105.944L102.456 119.312L106.406 118.425L103.504 121.972L116 142.389Z" fill="#4A4A54"/>
<path d="M131.479 105.943L128.456 104.386L124.266 110.727C124.226 110.768 116.005 138.74 116.005 138.74L116 142.388L128.496 121.972L125.594 118.424L129.544 119.311L131.479 105.943Z" fill="#4A4A54"/>
<path d="M116 38.8936C104.212 38.8936 94.6552 44.013 94.6552 66.3677C94.6552 73.9296 96.1525 79.8549 98.3948 84.428C103.328 94.4888 111.866 98.005 116 98.005C120.134 98.005 128.672 94.4888 133.605 84.428C135.847 79.8549 137.345 73.9296 137.345 66.3677C137.345 44.013 127.788 38.8936 116 38.8936Z" fill="#F4B382"/>
<path d="M95.0346 67.0557C92.9938 67.4047 91.4416 68.2836 92.5928 75.0181C93.7443 81.7529 95.1742 82.0661 97.2152 81.7171L95.0346 67.0557Z" fill="#F4B382"/>
<path d="M116 38.8936C104.212 38.8936 94.6552 44.013 94.6552 66.3677C94.6552 66.3677 109.792 68.1178 122.852 56.0249C127.264 51.9396 137.344 66.3677 137.344 66.3677C137.345 44.013 127.788 38.8936 116 38.8936Z" fill="#602F0F"/>
<path d="M99.5535 66.2841L96.0163 58.0459C94.9884 60.6761 94.6552 63.9373 94.6552 67.1105C94.6552 67.1105 96.7721 66.6469 96.7721 67.7352L97.4372 74.4166L98.3744 73.9631C98.314 68.4003 99.5535 66.2841 99.5535 66.2841Z" fill="#602F0F"/>
<path d="M136.989 67.0552L134.808 81.7166C136.849 82.0656 138.279 81.7524 139.431 75.0176C140.582 68.2831 139.03 67.4042 136.989 67.0552Z" fill="#F4B382"/>
<path d="M136.008 58.0454L132.471 66.2836C132.471 66.2836 133.71 68.3999 133.65 73.9626L134.587 74.4161L135.252 67.7347C135.252 66.6464 137.369 67.11 137.369 67.11C137.369 63.9366 137.036 60.6754 136.008 58.0454Z" fill="#602F0F"/>
<path d="M48.6758 193.27C48.6758 196.098 47.8906 198.262 46.3203 199.762C44.75 201.254 42.4883 202 39.5352 202H34.7422V184.867H40.0391C42.7656 184.867 44.8867 185.602 46.4023 187.07C47.918 188.539 48.6758 190.605 48.6758 193.27ZM45.7227 193.363C45.7227 189.262 43.8047 187.211 39.9688 187.211H37.543V199.645H39.5352C43.6602 199.645 45.7227 197.551 45.7227 193.363ZM54.8281 202H52.0742V189.039H54.8281V202ZM51.9102 185.605C51.9102 185.113 52.043 184.734 52.3086 184.469C52.582 184.203 52.9688 184.07 53.4688 184.07C53.9531 184.07 54.3281 184.203 54.5938 184.469C54.8672 184.734 55.0039 185.113 55.0039 185.605C55.0039 186.074 54.8672 186.445 54.5938 186.719C54.3281 186.984 53.9531 187.117 53.4688 187.117C52.9688 187.117 52.582 186.984 52.3086 186.719C52.043 186.445 51.9102 186.074 51.9102 185.605ZM65.3516 188.805C65.9062 188.805 66.3633 188.844 66.7227 188.922L66.4531 191.488C66.0625 191.395 65.6562 191.348 65.2344 191.348C64.1328 191.348 63.2383 191.707 62.5508 192.426C61.8711 193.145 61.5312 194.078 61.5312 195.227V202H58.7773V189.039H60.9336L61.2969 191.324H61.4375C61.8672 190.551 62.4258 189.938 63.1133 189.484C63.8086 189.031 64.5547 188.805 65.3516 188.805ZM74.7969 202.234C72.7812 202.234 71.2031 201.648 70.0625 200.477C68.9297 199.297 68.3633 197.676 68.3633 195.613C68.3633 193.496 68.8906 191.832 69.9453 190.621C71 189.41 72.4492 188.805 74.293 188.805C76.0039 188.805 77.3555 189.324 78.3477 190.363C79.3398 191.402 79.8359 192.832 79.8359 194.652V196.141H71.1992C71.2383 197.398 71.5781 198.367 72.2188 199.047C72.8594 199.719 73.7617 200.055 74.9258 200.055C75.6914 200.055 76.4023 199.984 77.0586 199.844C77.7227 199.695 78.4336 199.453 79.1914 199.117V201.355C78.5195 201.676 77.8398 201.902 77.1523 202.035C76.4648 202.168 75.6797 202.234 74.7969 202.234ZM74.293 190.891C73.418 190.891 72.7148 191.168 72.1836 191.723C71.6602 192.277 71.3477 193.086 71.2461 194.148H77.1289C77.1133 193.078 76.8555 192.27 76.3555 191.723C75.8555 191.168 75.168 190.891 74.293 190.891ZM85.625 195.156L87.1836 193.211L91.0977 189.039H94.2734L89.0586 194.605L94.6016 202H91.3672L87.207 196.316L85.6953 197.559V202H82.9648V183.766H85.6953V192.66L85.5547 195.156H85.625ZM101.527 200.008C102.199 200.008 102.871 199.902 103.543 199.691V201.766C103.238 201.898 102.844 202.008 102.359 202.094C101.883 202.188 101.387 202.234 100.871 202.234C98.2617 202.234 96.957 200.859 96.957 198.109V191.125H95.1875V189.906L97.0859 188.898L98.0234 186.156H99.7227V189.039H103.414V191.125H99.7227V198.062C99.7227 198.727 99.8867 199.219 100.215 199.539C100.551 199.852 100.988 200.008 101.527 200.008ZM117.641 195.496C117.641 197.613 117.098 199.266 116.012 200.453C114.926 201.641 113.414 202.234 111.477 202.234C110.352 202.234 109.375 202.012 108.547 201.566L107.656 202.844L106.074 201.789L107.035 200.418C105.926 199.207 105.371 197.566 105.371 195.496C105.371 193.395 105.91 191.754 106.988 190.574C108.066 189.395 109.586 188.805 111.547 188.805C112.672 188.805 113.68 189.051 114.57 189.543L115.379 188.371L116.973 189.449L116.059 190.715C117.113 191.902 117.641 193.496 117.641 195.496ZM108.207 195.496C108.207 196.551 108.352 197.406 108.641 198.062L113.223 191.512C112.754 191.207 112.18 191.055 111.5 191.055C110.344 191.055 109.504 191.438 108.98 192.203C108.465 192.969 108.207 194.066 108.207 195.496ZM114.805 195.496C114.805 194.551 114.676 193.758 114.418 193.117L109.883 199.598C110.305 199.855 110.852 199.984 111.523 199.984C113.711 199.984 114.805 198.488 114.805 195.496ZM127.391 188.805C127.945 188.805 128.402 188.844 128.762 188.922L128.492 191.488C128.102 191.395 127.695 191.348 127.273 191.348C126.172 191.348 125.277 191.707 124.59 192.426C123.91 193.145 123.57 194.078 123.57 195.227V202H120.816V189.039H122.973L123.336 191.324H123.477C123.906 190.551 124.465 189.938 125.152 189.484C125.848 189.031 126.594 188.805 127.391 188.805ZM151.215 202H148.402V194.277H140.504V202H137.703V184.867H140.504V191.875H148.402V184.867H151.215V202ZM161.094 202.234C159.078 202.234 157.5 201.648 156.359 200.477C155.227 199.297 154.66 197.676 154.66 195.613C154.66 193.496 155.188 191.832 156.242 190.621C157.297 189.41 158.746 188.805 160.59 188.805C162.301 188.805 163.652 189.324 164.645 190.363C165.637 191.402 166.133 192.832 166.133 194.652V196.141H157.496C157.535 197.398 157.875 198.367 158.516 199.047C159.156 199.719 160.059 200.055 161.223 200.055C161.988 200.055 162.699 199.984 163.355 199.844C164.02 199.695 164.73 199.453 165.488 199.117V201.355C164.816 201.676 164.137 201.902 163.449 202.035C162.762 202.168 161.977 202.234 161.094 202.234ZM160.59 190.891C159.715 190.891 159.012 191.168 158.48 191.723C157.957 192.277 157.645 193.086 157.543 194.148H163.426C163.41 193.078 163.152 192.27 162.652 191.723C162.152 191.168 161.465 190.891 160.59 190.891ZM172.016 202H169.262V183.766H172.016V202ZM184.672 198.309C184.672 199.574 184.211 200.547 183.289 201.227C182.367 201.898 181.047 202.234 179.328 202.234C177.602 202.234 176.215 201.973 175.168 201.449V199.07C176.691 199.773 178.109 200.125 179.422 200.125C181.117 200.125 181.965 199.613 181.965 198.59C181.965 198.262 181.871 197.988 181.684 197.77C181.496 197.551 181.188 197.324 180.758 197.09C180.328 196.855 179.73 196.59 178.965 196.293C177.473 195.715 176.461 195.137 175.93 194.559C175.406 193.98 175.145 193.23 175.145 192.309C175.145 191.199 175.59 190.34 176.48 189.73C177.379 189.113 178.598 188.805 180.137 188.805C181.66 188.805 183.102 189.113 184.461 189.73L183.57 191.805C182.172 191.227 180.996 190.938 180.043 190.938C178.59 190.938 177.863 191.352 177.863 192.18C177.863 192.586 178.051 192.93 178.426 193.211C178.809 193.492 179.637 193.879 180.91 194.371C181.98 194.785 182.758 195.164 183.242 195.508C183.727 195.852 184.086 196.25 184.32 196.703C184.555 197.148 184.672 197.684 184.672 198.309ZM193.32 202.234C191.305 202.234 189.727 201.648 188.586 200.477C187.453 199.297 186.887 197.676 186.887 195.613C186.887 193.496 187.414 191.832 188.469 190.621C189.523 189.41 190.973 188.805 192.816 188.805C194.527 188.805 195.879 189.324 196.871 190.363C197.863 191.402 198.359 192.832 198.359 194.652V196.141H189.723C189.762 197.398 190.102 198.367 190.742 199.047C191.383 199.719 192.285 200.055 193.449 200.055C194.215 200.055 194.926 199.984 195.582 199.844C196.246 199.695 196.957 199.453 197.715 199.117V201.355C197.043 201.676 196.363 201.902 195.676 202.035C194.988 202.168 194.203 202.234 193.32 202.234ZM192.816 190.891C191.941 190.891 191.238 191.168 190.707 191.723C190.184 192.277 189.871 193.086 189.77 194.148H195.652C195.637 193.078 195.379 192.27 194.879 191.723C194.379 191.168 193.691 190.891 192.816 190.891Z" fill="#2B2859"/>
<rect x="0.5" y="0.5" width="231" height="232" stroke="#E0E6EF"/>
</svg>
