<svg width="232" height="233" viewBox="0 0 232 233" fill="none" xmlns="http://www.w3.org/2000/svg">
<rect x="0.5" y="0.5" width="231" height="232" fill="white"/>
<path opacity="0.6" d="M116.001 24.001C82.8632 24.001 56 50.8618 56 84.0017C56 117.137 82.8632 144 116.001 144C149.137 144 176 117.137 176 84.0017C176 50.8615 149.137 24.001 116.001 24.001Z" fill="#F9C66B"/>
<path d="M157.222 116.567C155.167 109.97 137.583 104.636 115.906 104.636C94.2288 104.636 76.8317 109.97 74.7776 116.567C74.1391 118.618 73.4401 121.948 72.774 125.607C83.6891 136.944 99.02 143.999 116 143.999C132.98 143.999 148.31 136.944 159.225 125.608C158.559 121.948 157.86 118.618 157.222 116.567Z" fill="#33333B"/>
<path d="M115.929 111.589L106.849 105.122C106.849 105.122 111.74 138.74 116.018 138.74C120.296 138.74 125.15 105.122 125.15 105.122L115.929 111.589Z" fill="#D4D6D8"/>
<path d="M115.94 100.668L106.381 101.938L106.831 105.122L115.93 111.912L125.17 105.122L125.62 101.938L115.94 100.668Z" fill="#D4D6D8"/>
<path d="M125.406 92.2329H106.594C109.529 101.082 106.83 105.123 106.83 105.123L113.339 106.589H118.66L125.169 105.123C125.169 105.123 122.47 101.082 125.406 92.2329Z" fill="#E2A379"/>
<path d="M125.619 101.938L124.223 110.766L129.947 105.698L125.619 101.938Z" fill="#F3FAFF"/>
<path d="M106.38 101.938L102.053 105.698L107.777 110.766L106.38 101.938Z" fill="#F3FAFF"/>
<path d="M125.619 101.938L115.994 106.589C115.994 106.589 124.225 110.768 124.266 110.728L129.947 105.698L125.619 101.938Z" fill="#F3FAFF"/>
<path d="M106.38 101.938L102.053 105.698L107.734 110.728C107.774 110.768 115.995 106.589 115.995 106.589L106.38 101.938Z" fill="#F3FAFF"/>
<path d="M115.992 106.588L112.191 108.509L115.992 114.701L119.794 108.509L115.992 106.588Z" fill="#86B4D1"/>
<path d="M116.975 111.531H115.006L112.282 131.917C113.489 135.922 114.78 138.74 116.018 138.74C117.248 138.74 118.527 135.956 119.723 131.994L116.975 111.531Z" fill="#86B4D1"/>
<path d="M116 142.389L115.995 138.741C115.995 138.741 107.774 110.768 107.734 110.728L103.544 104.387L100.521 105.944L102.456 119.312L106.406 118.425L103.504 121.972L116 142.389Z" fill="#4A4A54"/>
<path d="M131.479 105.943L128.456 104.386L124.266 110.727C124.226 110.768 116.005 138.74 116.005 138.74L116 142.388L128.496 121.972L125.594 118.424L129.544 119.311L131.479 105.943Z" fill="#4A4A54"/>
<path d="M116 38.8936C104.212 38.8936 94.6551 44.013 94.6551 66.3677C94.6551 73.9296 96.1525 79.8549 98.3947 84.428C103.328 94.4888 111.866 98.005 116 98.005C120.134 98.005 128.672 94.4888 133.605 84.428C135.847 79.8549 137.345 73.9296 137.345 66.3677C137.345 44.013 127.788 38.8936 116 38.8936Z" fill="#F4B382"/>
<path d="M95.0346 67.0557C92.9938 67.4047 91.4416 68.2836 92.5928 75.0181C93.7443 81.7529 95.1742 82.0661 97.2152 81.7171L95.0346 67.0557Z" fill="#F4B382"/>
<path d="M116 38.8936C104.212 38.8936 94.6552 44.013 94.6552 66.3677C94.6552 66.3677 109.792 68.1178 122.852 56.0249C127.264 51.9396 137.344 66.3677 137.344 66.3677C137.345 44.013 127.788 38.8936 116 38.8936Z" fill="#602F0F"/>
<path d="M99.5535 66.2841L96.0163 58.0459C94.9884 60.6761 94.6552 63.9373 94.6552 67.1105C94.6552 67.1105 96.7721 66.6469 96.7721 67.7352L97.4372 74.4166L98.3744 73.9631C98.314 68.4003 99.5535 66.2841 99.5535 66.2841Z" fill="#602F0F"/>
<path d="M136.989 67.0552L134.808 81.7166C136.849 82.0656 138.279 81.7524 139.431 75.0176C140.582 68.2831 139.03 67.4042 136.989 67.0552Z" fill="#F4B382"/>
<path d="M136.008 58.0454L132.471 66.2836C132.471 66.2836 133.71 68.3999 133.65 73.9626L134.587 74.4161L135.252 67.7347C135.252 66.6464 137.369 67.11 137.369 67.11C137.369 63.9366 137.036 60.6754 136.008 58.0454Z" fill="#602F0F"/>
<path d="M37.1914 202L35.4805 197.242H28.9297L27.2539 202H24.3008L30.7109 184.797H33.7578L40.168 202H37.1914ZM34.7422 194.828L33.1367 190.164C33.0195 189.852 32.8555 189.359 32.6445 188.688C32.4414 188.016 32.3008 187.523 32.2227 187.211C32.0117 188.172 31.7031 189.223 31.2969 190.363L29.75 194.828H34.7422ZM45.0898 202L40.168 189.039H43.0742L45.7109 196.574C46.1641 197.84 46.4375 198.863 46.5312 199.645H46.625C46.6953 199.082 46.9688 198.059 47.4453 196.574L50.082 189.039H53.0117L48.0664 202H45.0898ZM59.3516 202.234C57.7344 202.234 56.4727 201.648 55.5664 200.477C54.6602 199.305 54.207 197.66 54.207 195.543C54.207 193.418 54.6641 191.766 55.5781 190.586C56.5 189.398 57.7734 188.805 59.3984 188.805C61.1016 188.805 62.3984 189.434 63.2891 190.691H63.4297C63.2969 189.762 63.2305 189.027 63.2305 188.488V183.766H65.9961V202H63.8398L63.3594 200.301H63.2305C62.3477 201.59 61.0547 202.234 59.3516 202.234ZM60.0898 200.008C61.2227 200.008 62.0469 199.691 62.5625 199.059C63.0781 198.418 63.3438 197.383 63.3594 195.953V195.566C63.3594 193.934 63.0938 192.773 62.5625 192.086C62.0312 191.398 61.1992 191.055 60.0664 191.055C59.0977 191.055 58.3516 191.449 57.8281 192.238C57.3047 193.02 57.043 194.137 57.043 195.59C57.043 197.027 57.2969 198.125 57.8047 198.883C58.3125 199.633 59.0742 200.008 60.0898 200.008ZM75.5938 202.234C73.5781 202.234 72 201.648 70.8594 200.477C69.7266 199.297 69.1602 197.676 69.1602 195.613C69.1602 193.496 69.6875 191.832 70.7422 190.621C71.7969 189.41 73.2461 188.805 75.0898 188.805C76.8008 188.805 78.1523 189.324 79.1445 190.363C80.1367 191.402 80.6328 192.832 80.6328 194.652V196.141H71.9961C72.0352 197.398 72.375 198.367 73.0156 199.047C73.6562 199.719 74.5586 200.055 75.7227 200.055C76.4883 200.055 77.1992 199.984 77.8555 199.844C78.5195 199.695 79.2305 199.453 79.9883 199.117V201.355C79.3164 201.676 78.6367 201.902 77.9492 202.035C77.2617 202.168 76.4766 202.234 75.5938 202.234ZM75.0898 190.891C74.2148 190.891 73.5117 191.168 72.9805 191.723C72.457 192.277 72.1445 193.086 72.043 194.148H77.9258C77.9102 193.078 77.6523 192.27 77.1523 191.723C76.6523 191.168 75.9648 190.891 75.0898 190.891ZM86.5156 202H83.7617V183.766H86.5156V202ZM93.2188 202H90.4648V189.039H93.2188V202ZM90.3008 185.605C90.3008 185.113 90.4336 184.734 90.6992 184.469C90.9727 184.203 91.3594 184.07 91.8594 184.07C92.3438 184.07 92.7188 184.203 92.9844 184.469C93.2578 184.734 93.3945 185.113 93.3945 185.605C93.3945 186.074 93.2578 186.445 92.9844 186.719C92.7188 186.984 92.3438 187.117 91.8594 187.117C91.3594 187.117 90.9727 186.984 90.6992 186.719C90.4336 186.445 90.3008 186.074 90.3008 185.605ZM108.57 202H105.805V194.031C105.805 193.031 105.602 192.285 105.195 191.793C104.797 191.301 104.16 191.055 103.285 191.055C102.121 191.055 101.27 191.398 100.73 192.086C100.191 192.773 99.9219 193.926 99.9219 195.543V202H97.168V189.039H99.3242L99.7109 190.738H99.8516C100.242 190.121 100.797 189.645 101.516 189.309C102.234 188.973 103.031 188.805 103.906 188.805C107.016 188.805 108.57 190.387 108.57 193.551V202ZM123.348 189.039V190.551L121.133 190.961C121.336 191.234 121.504 191.57 121.637 191.969C121.77 192.367 121.836 192.789 121.836 193.234C121.836 194.57 121.375 195.621 120.453 196.387C119.531 197.152 118.262 197.535 116.645 197.535C116.23 197.535 115.855 197.504 115.52 197.441C114.926 197.809 114.629 198.238 114.629 198.73C114.629 199.027 114.766 199.25 115.039 199.398C115.32 199.547 115.832 199.621 116.574 199.621H118.836C120.266 199.621 121.352 199.926 122.094 200.535C122.836 201.145 123.207 202.023 123.207 203.172C123.207 204.641 122.602 205.773 121.391 206.57C120.18 207.367 118.43 207.766 116.141 207.766C114.375 207.766 113.027 207.453 112.098 206.828C111.168 206.203 110.703 205.312 110.703 204.156C110.703 203.359 110.953 202.688 111.453 202.141C111.961 201.602 112.668 201.227 113.574 201.016C113.207 200.859 112.902 200.609 112.66 200.266C112.426 199.914 112.309 199.547 112.309 199.164C112.309 198.68 112.445 198.27 112.719 197.934C112.992 197.598 113.398 197.266 113.938 196.938C113.266 196.648 112.719 196.18 112.297 195.531C111.883 194.875 111.676 194.109 111.676 193.234C111.676 191.828 112.117 190.738 113 189.965C113.891 189.191 115.156 188.805 116.797 188.805C117.164 188.805 117.547 188.832 117.945 188.887C118.352 188.934 118.656 188.984 118.859 189.039H123.348ZM113.164 204.016C113.164 204.609 113.43 205.066 113.961 205.387C114.5 205.707 115.254 205.867 116.223 205.867C117.723 205.867 118.84 205.652 119.574 205.223C120.309 204.793 120.676 204.223 120.676 203.512C120.676 202.949 120.473 202.547 120.066 202.305C119.668 202.07 118.922 201.953 117.828 201.953H115.742C114.953 201.953 114.324 202.137 113.855 202.504C113.395 202.879 113.164 203.383 113.164 204.016ZM114.348 193.234C114.348 194.047 114.555 194.672 114.969 195.109C115.391 195.547 115.992 195.766 116.773 195.766C118.367 195.766 119.164 194.914 119.164 193.211C119.164 192.367 118.965 191.719 118.566 191.266C118.176 190.805 117.578 190.574 116.773 190.574C115.977 190.574 115.371 190.801 114.957 191.254C114.551 191.707 114.348 192.367 114.348 193.234ZM134.469 198.309C134.469 199.574 134.008 200.547 133.086 201.227C132.164 201.898 130.844 202.234 129.125 202.234C127.398 202.234 126.012 201.973 124.965 201.449V199.07C126.488 199.773 127.906 200.125 129.219 200.125C130.914 200.125 131.762 199.613 131.762 198.59C131.762 198.262 131.668 197.988 131.48 197.77C131.293 197.551 130.984 197.324 130.555 197.09C130.125 196.855 129.527 196.59 128.762 196.293C127.27 195.715 126.258 195.137 125.727 194.559C125.203 193.98 124.941 193.23 124.941 192.309C124.941 191.199 125.387 190.34 126.277 189.73C127.176 189.113 128.395 188.805 129.934 188.805C131.457 188.805 132.898 189.113 134.258 189.73L133.367 191.805C131.969 191.227 130.793 190.938 129.84 190.938C128.387 190.938 127.66 191.352 127.66 192.18C127.66 192.586 127.848 192.93 128.223 193.211C128.605 193.492 129.434 193.879 130.707 194.371C131.777 194.785 132.555 195.164 133.039 195.508C133.523 195.852 133.883 196.25 134.117 196.703C134.352 197.148 134.469 197.684 134.469 198.309ZM143.984 202V184.867H146.785V199.598H154.039V202H143.984ZM162.359 202.234C160.344 202.234 158.766 201.648 157.625 200.477C156.492 199.297 155.926 197.676 155.926 195.613C155.926 193.496 156.453 191.832 157.508 190.621C158.562 189.41 160.012 188.805 161.855 188.805C163.566 188.805 164.918 189.324 165.91 190.363C166.902 191.402 167.398 192.832 167.398 194.652V196.141H158.762C158.801 197.398 159.141 198.367 159.781 199.047C160.422 199.719 161.324 200.055 162.488 200.055C163.254 200.055 163.965 199.984 164.621 199.844C165.285 199.695 165.996 199.453 166.754 199.117V201.355C166.082 201.676 165.402 201.902 164.715 202.035C164.027 202.168 163.242 202.234 162.359 202.234ZM161.855 190.891C160.98 190.891 160.277 191.168 159.746 191.723C159.223 192.277 158.91 193.086 158.809 194.148H164.691C164.676 193.078 164.418 192.27 163.918 191.723C163.418 191.168 162.73 190.891 161.855 190.891ZM174.898 202.234C173.281 202.234 172.02 201.648 171.113 200.477C170.207 199.305 169.754 197.66 169.754 195.543C169.754 193.418 170.211 191.766 171.125 190.586C172.047 189.398 173.32 188.805 174.945 188.805C176.648 188.805 177.945 189.434 178.836 190.691H178.977C178.844 189.762 178.777 189.027 178.777 188.488V183.766H181.543V202H179.387L178.906 200.301H178.777C177.895 201.59 176.602 202.234 174.898 202.234ZM175.637 200.008C176.77 200.008 177.594 199.691 178.109 199.059C178.625 198.418 178.891 197.383 178.906 195.953V195.566C178.906 193.934 178.641 192.773 178.109 192.086C177.578 191.398 176.746 191.055 175.613 191.055C174.645 191.055 173.898 191.449 173.375 192.238C172.852 193.02 172.59 194.137 172.59 195.59C172.59 197.027 172.844 198.125 173.352 198.883C173.859 199.633 174.621 200.008 175.637 200.008ZM191.141 202.234C189.125 202.234 187.547 201.648 186.406 200.477C185.273 199.297 184.707 197.676 184.707 195.613C184.707 193.496 185.234 191.832 186.289 190.621C187.344 189.41 188.793 188.805 190.637 188.805C192.348 188.805 193.699 189.324 194.691 190.363C195.684 191.402 196.18 192.832 196.18 194.652V196.141H187.543C187.582 197.398 187.922 198.367 188.562 199.047C189.203 199.719 190.105 200.055 191.27 200.055C192.035 200.055 192.746 199.984 193.402 199.844C194.066 199.695 194.777 199.453 195.535 199.117V201.355C194.863 201.676 194.184 201.902 193.496 202.035C192.809 202.168 192.023 202.234 191.141 202.234ZM190.637 190.891C189.762 190.891 189.059 191.168 188.527 191.723C188.004 192.277 187.691 193.086 187.59 194.148H193.473C193.457 193.078 193.199 192.27 192.699 191.723C192.199 191.168 191.512 190.891 190.637 190.891ZM205.883 188.805C206.438 188.805 206.895 188.844 207.254 188.922L206.984 191.488C206.594 191.395 206.188 191.348 205.766 191.348C204.664 191.348 203.77 191.707 203.082 192.426C202.402 193.145 202.062 194.078 202.062 195.227V202H199.309V189.039H201.465L201.828 191.324H201.969C202.398 190.551 202.957 189.938 203.645 189.484C204.34 189.031 205.086 188.805 205.883 188.805Z" fill="#2B2859"/>
<rect x="0.5" y="0.5" width="231" height="232" stroke="#E0E6EF"/>
</svg>
