<svg width="232" height="233" viewBox="0 0 232 233" fill="none" xmlns="http://www.w3.org/2000/svg">
<rect x="0.5" y="0.5" width="231" height="232" fill="white"/>
<path opacity="0.6" d="M116.001 24.001C82.8632 24.001 56 50.8618 56 84.0017C56 117.137 82.8632 144 116.001 144C149.137 144 176 117.137 176 84.0017C176 50.8615 149.137 24.001 116.001 24.001Z" fill="#F9C66B"/>
<path d="M151.49 116.567C149.722 109.97 134.583 104.636 115.919 104.636C97.256 104.636 82.278 109.97 80.5095 116.567C79.7213 119.508 78.8259 125.079 78.0605 130.48C88.3992 138.929 101.607 143.999 116.001 143.999C130.394 143.999 143.601 138.929 153.939 130.48C153.174 125.079 152.279 119.508 151.49 116.567Z" fill="#388E6F"/>
<path d="M115.94 100.668L106.381 101.938L106.831 105.122L115.93 111.912L125.17 105.122L125.62 101.938L115.94 100.668Z" fill="#D4D6D8"/>
<path d="M125.406 92.2329H106.594C109.529 101.082 106.83 105.123 106.83 105.123L113.339 108.247H118.66L125.169 105.123C125.169 105.123 122.47 101.082 125.406 92.2329Z" fill="#7F3E09"/>
<path d="M116 38.8936C105.347 38.8936 96.7109 44.013 96.7109 66.3677C96.7109 73.9296 98.0641 79.8549 100.09 84.428C104.548 94.4888 112.264 98.005 116 98.005C119.736 98.005 127.452 94.4888 131.91 84.428C133.936 79.8549 135.289 73.9296 135.289 66.3677C135.289 44.013 126.653 38.8936 116 38.8936Z" fill="#8E4809"/>
<path d="M118.523 86.338C117.804 86.2318 116 86.9426 116 86.9426C116 86.9426 114.17 86.2337 113.446 86.3428C112.285 86.5174 110.558 88.5082 110.558 88.8371C110.558 88.8371 112.995 90.1068 116 90.1068C119.005 90.1068 121.442 88.8371 121.442 88.8371C121.442 88.8371 119.701 86.5121 118.523 86.338Z" fill="#723808"/>
<path d="M117.482 87.9498C117.01 87.9244 116.403 88.3532 116 88.3532C115.534 88.3532 114.837 87.9293 114.301 87.9621C111.12 88.1581 110.558 88.837 110.558 88.837C110.558 88.837 112.995 91.0439 116 91.0439C119.005 91.0439 121.442 88.837 121.442 88.837C121.442 88.837 120.785 88.1271 117.482 87.9498Z" fill="#5E2C07"/>
<path d="M125.15 105.122C125.15 105.122 122.994 109.314 115.93 109.314C108.865 109.314 106.85 105.122 106.85 105.122C106.85 105.122 105.153 118.344 116.018 118.344C126.884 118.344 125.15 105.122 125.15 105.122Z" fill="#7F3E09"/>
<path d="M115.94 100.668L106.831 105.122C106.831 105.122 110.901 111.912 115.929 111.912C120.958 111.912 125.169 105.122 125.169 105.122L115.94 100.668Z" fill="#7F3E09"/>
<path d="M116 46.9155C121.61 46.9155 126.158 43.8113 126.158 39.9819C126.158 36.1526 121.61 33.0483 116 33.0483C110.39 33.0483 105.842 36.1526 105.842 39.9819C105.842 43.8113 110.39 46.9155 116 46.9155Z" fill="#16110E"/>
<path d="M116 38.8936C102.133 38.8936 96.0062 44.9574 96.0062 67.3119C96.0062 67.3119 115.98 60.9027 115.98 52.7649C115.98 60.9027 135.993 67.3119 135.993 67.3119C135.994 44.9574 129.866 38.8936 116 38.8936Z" fill="#261D17"/>
<path d="M97.0593 67.0415C95.2154 67.3569 93.8128 68.1509 94.8531 74.2358C95.8938 80.3207 97.1858 80.6037 99.0295 80.2883L97.0593 67.0415Z" fill="#8E4809"/>
<path d="M134.965 67.0415L132.995 80.2883C134.839 80.6037 136.131 80.3207 137.171 74.2358C138.211 68.1509 136.809 67.3569 134.965 67.0415Z" fill="#8E4809"/>
<path d="M98.2637 68.2791C98.1604 67.6264 98.1452 67.0297 98.1624 66.5506C98.1873 65.861 98.2799 65.417 98.2799 65.417L96.0125 66.2635C96.0084 66.6089 96.0062 66.9581 96.0062 67.3115L96.6215 67.1047C96.933 67.6344 97.3236 68.4475 97.6995 69.6495C97.6995 69.6498 98.5851 70.3096 98.2637 68.2791Z" fill="#261D17"/>
<path d="M135.987 66.2606L133.729 65.4175C133.729 65.4175 133.822 65.8637 133.847 66.5561C133.864 67.0345 133.848 67.629 133.745 68.2796C133.424 70.3098 134.31 69.6502 134.31 69.6502C134.685 68.4506 135.073 67.6375 135.381 67.1069C135.773 67.2416 135.993 67.3122 135.993 67.3122C135.994 66.9574 135.991 66.6069 135.987 66.2606Z" fill="#261D17"/>
<path d="M115.929 108.246L106.849 105.122C106.849 105.122 111.74 138.74 116.018 138.74C120.296 138.74 125.15 105.122 125.15 105.122L115.929 108.246Z" fill="#C7C8C9"/>
<path d="M115.929 108.246L106.084 105.122C106.084 105.122 115.995 138.74 116.018 138.74C116.042 138.74 115.929 108.246 115.929 108.246Z" fill="#D4D6D8"/>
<path d="M125.619 101.938L115.994 108.246C115.994 108.246 124.225 110.768 124.266 110.728L129.947 105.698L125.619 101.938Z" fill="#F3FAFF"/>
<path d="M106.38 101.938L102.053 105.698L107.734 110.728C107.774 110.768 115.995 108.247 115.995 108.247L106.38 101.938Z" fill="#F3FAFF"/>
<path d="M116 142.389L115.995 138.741C115.995 138.741 107.774 110.768 107.734 110.728L103.544 104.387L100.521 105.944L102.456 119.312L106.406 118.425L103.504 121.972L116 142.389Z" fill="#4ABC96"/>
<path d="M131.479 105.943L128.456 104.386L124.266 110.727C124.226 110.768 116.005 138.74 116.005 138.74L116 142.388L128.496 121.972L125.594 118.424L129.544 119.311L131.479 105.943Z" fill="#4ABC96"/>
<path d="M61.3203 197.348C61.3203 198.871 60.7695 200.066 59.668 200.934C58.5664 201.801 57.0469 202.234 55.1094 202.234C53.1719 202.234 51.5859 201.934 50.3516 201.332V198.684C51.1328 199.051 51.9609 199.34 52.8359 199.551C53.7188 199.762 54.5391 199.867 55.2969 199.867C56.4062 199.867 57.2227 199.656 57.7461 199.234C58.2773 198.812 58.543 198.246 58.543 197.535C58.543 196.895 58.3008 196.352 57.8164 195.906C57.332 195.461 56.332 194.934 54.8164 194.324C53.2539 193.691 52.1523 192.969 51.5117 192.156C50.8711 191.344 50.5508 190.367 50.5508 189.227C50.5508 187.797 51.0586 186.672 52.0742 185.852C53.0898 185.031 54.4531 184.621 56.1641 184.621C57.8047 184.621 59.4375 184.98 61.0625 185.699L60.1719 187.984C58.6484 187.344 57.2891 187.023 56.0938 187.023C55.1875 187.023 54.5 187.223 54.0312 187.621C53.5625 188.012 53.3281 188.531 53.3281 189.18C53.3281 189.625 53.4219 190.008 53.6094 190.328C53.7969 190.641 54.1055 190.938 54.5352 191.219C54.9648 191.5 55.7383 191.871 56.8555 192.332C58.1133 192.855 59.0352 193.344 59.6211 193.797C60.207 194.25 60.6367 194.762 60.9102 195.332C61.1836 195.902 61.3203 196.574 61.3203 197.348ZM70.0039 202.234C67.9883 202.234 66.4102 201.648 65.2695 200.477C64.1367 199.297 63.5703 197.676 63.5703 195.613C63.5703 193.496 64.0977 191.832 65.1523 190.621C66.207 189.41 67.6562 188.805 69.5 188.805C71.2109 188.805 72.5625 189.324 73.5547 190.363C74.5469 191.402 75.043 192.832 75.043 194.652V196.141H66.4062C66.4453 197.398 66.7852 198.367 67.4258 199.047C68.0664 199.719 68.9688 200.055 70.1328 200.055C70.8984 200.055 71.6094 199.984 72.2656 199.844C72.9297 199.695 73.6406 199.453 74.3984 199.117V201.355C73.7266 201.676 73.0469 201.902 72.3594 202.035C71.6719 202.168 70.8867 202.234 70.0039 202.234ZM69.5 190.891C68.625 190.891 67.9219 191.168 67.3906 191.723C66.8672 192.277 66.5547 193.086 66.4531 194.148H72.3359C72.3203 193.078 72.0625 192.27 71.5625 191.723C71.0625 191.168 70.375 190.891 69.5 190.891ZM83.3984 202.234C81.4375 202.234 79.9453 201.664 78.9219 200.523C77.9062 199.375 77.3984 197.73 77.3984 195.59C77.3984 193.41 77.9297 191.734 78.9922 190.562C80.0625 189.391 81.6055 188.805 83.6211 188.805C84.9883 188.805 86.2188 189.059 87.3125 189.566L86.4805 191.781C85.3164 191.328 84.3555 191.102 83.5977 191.102C81.3555 191.102 80.2344 192.59 80.2344 195.566C80.2344 197.02 80.5117 198.113 81.0664 198.848C81.6289 199.574 82.4492 199.938 83.5273 199.938C84.7539 199.938 85.9141 199.633 87.0078 199.023V201.426C86.5156 201.715 85.9883 201.922 85.4258 202.047C84.8711 202.172 84.1953 202.234 83.3984 202.234ZM94.8828 200.008C95.5547 200.008 96.2266 199.902 96.8984 199.691V201.766C96.5938 201.898 96.1992 202.008 95.7148 202.094C95.2383 202.188 94.7422 202.234 94.2266 202.234C91.6172 202.234 90.3125 200.859 90.3125 198.109V191.125H88.543V189.906L90.4414 188.898L91.3789 186.156H93.0781V189.039H96.7695V191.125H93.0781V198.062C93.0781 198.727 93.2422 199.219 93.5703 199.539C93.9062 199.852 94.3438 200.008 94.8828 200.008ZM102.254 202H99.5V189.039H102.254V202ZM99.3359 185.605C99.3359 185.113 99.4688 184.734 99.7344 184.469C100.008 184.203 100.395 184.07 100.895 184.07C101.379 184.07 101.754 184.203 102.02 184.469C102.293 184.734 102.43 185.113 102.43 185.605C102.43 186.074 102.293 186.445 102.02 186.719C101.754 186.984 101.379 187.117 100.895 187.117C100.395 187.117 100.008 186.984 99.7344 186.719C99.4688 186.445 99.3359 186.074 99.3359 185.605ZM117.699 195.496C117.699 197.613 117.156 199.266 116.07 200.453C114.984 201.641 113.473 202.234 111.535 202.234C110.324 202.234 109.254 201.961 108.324 201.414C107.395 200.867 106.68 200.082 106.18 199.059C105.68 198.035 105.43 196.848 105.43 195.496C105.43 193.395 105.969 191.754 107.047 190.574C108.125 189.395 109.645 188.805 111.605 188.805C113.48 188.805 114.965 189.41 116.059 190.621C117.152 191.824 117.699 193.449 117.699 195.496ZM108.266 195.496C108.266 198.488 109.371 199.984 111.582 199.984C113.77 199.984 114.863 198.488 114.863 195.496C114.863 192.535 113.762 191.055 111.559 191.055C110.402 191.055 109.562 191.438 109.039 192.203C108.523 192.969 108.266 194.066 108.266 195.496ZM132.277 202H129.512V194.031C129.512 193.031 129.309 192.285 128.902 191.793C128.504 191.301 127.867 191.055 126.992 191.055C125.828 191.055 124.977 191.398 124.438 192.086C123.898 192.773 123.629 193.926 123.629 195.543V202H120.875V189.039H123.031L123.418 190.738H123.559C123.949 190.121 124.504 189.645 125.223 189.309C125.941 188.973 126.738 188.805 127.613 188.805C130.723 188.805 132.277 190.387 132.277 193.551V202ZM152.516 197.348C152.516 198.871 151.965 200.066 150.863 200.934C149.762 201.801 148.242 202.234 146.305 202.234C144.367 202.234 142.781 201.934 141.547 201.332V198.684C142.328 199.051 143.156 199.34 144.031 199.551C144.914 199.762 145.734 199.867 146.492 199.867C147.602 199.867 148.418 199.656 148.941 199.234C149.473 198.812 149.738 198.246 149.738 197.535C149.738 196.895 149.496 196.352 149.012 195.906C148.527 195.461 147.527 194.934 146.012 194.324C144.449 193.691 143.348 192.969 142.707 192.156C142.066 191.344 141.746 190.367 141.746 189.227C141.746 187.797 142.254 186.672 143.27 185.852C144.285 185.031 145.648 184.621 147.359 184.621C149 184.621 150.633 184.98 152.258 185.699L151.367 187.984C149.844 187.344 148.484 187.023 147.289 187.023C146.383 187.023 145.695 187.223 145.227 187.621C144.758 188.012 144.523 188.531 144.523 189.18C144.523 189.625 144.617 190.008 144.805 190.328C144.992 190.641 145.301 190.938 145.73 191.219C146.16 191.5 146.934 191.871 148.051 192.332C149.309 192.855 150.23 193.344 150.816 193.797C151.402 194.25 151.832 194.762 152.105 195.332C152.379 195.902 152.516 196.574 152.516 197.348ZM154.215 207.766C153.387 207.766 152.699 207.668 152.152 207.473V205.293C152.684 205.434 153.227 205.504 153.781 205.504C154.953 205.504 155.539 204.84 155.539 203.512V189.039H158.293V203.699C158.293 205.035 157.941 206.047 157.238 206.734C156.543 207.422 155.535 207.766 154.215 207.766ZM155.375 185.605C155.375 185.113 155.508 184.734 155.773 184.469C156.047 184.203 156.434 184.07 156.934 184.07C157.418 184.07 157.793 184.203 158.059 184.469C158.332 184.734 158.469 185.113 158.469 185.605C158.469 186.074 158.332 186.445 158.059 186.719C157.793 186.984 157.418 187.117 156.934 187.117C156.434 187.117 156.047 186.984 155.773 186.719C155.508 186.445 155.375 186.074 155.375 185.605ZM167.902 202.234C165.887 202.234 164.309 201.648 163.168 200.477C162.035 199.297 161.469 197.676 161.469 195.613C161.469 193.496 161.996 191.832 163.051 190.621C164.105 189.41 165.555 188.805 167.398 188.805C169.109 188.805 170.461 189.324 171.453 190.363C172.445 191.402 172.941 192.832 172.941 194.652V196.141H164.305C164.344 197.398 164.684 198.367 165.324 199.047C165.965 199.719 166.867 200.055 168.031 200.055C168.797 200.055 169.508 199.984 170.164 199.844C170.828 199.695 171.539 199.453 172.297 199.117V201.355C171.625 201.676 170.945 201.902 170.258 202.035C169.57 202.168 168.785 202.234 167.902 202.234ZM167.398 190.891C166.523 190.891 165.82 191.168 165.289 191.723C164.766 192.277 164.453 193.086 164.352 194.148H170.234C170.219 193.078 169.961 192.27 169.461 191.723C168.961 191.168 168.273 190.891 167.398 190.891ZM182.574 191.125H179.41V202H176.645V191.125H174.512V189.836L176.645 188.992V188.148C176.645 186.617 177.004 185.484 177.723 184.75C178.441 184.008 179.539 183.637 181.016 183.637C181.984 183.637 182.938 183.797 183.875 184.117L183.148 186.203C182.469 185.984 181.82 185.875 181.203 185.875C180.578 185.875 180.121 186.07 179.832 186.461C179.551 186.844 179.41 187.422 179.41 188.195V189.039H182.574V191.125Z" fill="#2B2859"/>
<rect x="0.5" y="0.5" width="231" height="232" stroke="#E0E6EF"/>
</svg>
