<svg width="22" height="20" viewBox="0 0 22 20" fill="none" xmlns="http://www.w3.org/2000/svg">
<path d="M16.1245 8.0853C16.1245 8.0853 17.0014 7.41852 16.3339 6.75173C15.6664 6.08494 15.0175 6.94541 15.0175 6.94541L8.30743 13.6569C8.30743 13.6569 6.73587 15.6851 5.54095 14.4587C4.34745 13.2309 6.34209 11.6915 6.34209 11.6915L15.1404 2.89395C15.1404 2.89395 17.1936 0.632025 19.1239 2.56092C21.0514 4.49052 18.783 6.54805 18.783 6.54805L8.89703 16.4341C8.89703 16.4341 5.73391 20.0882 2.80591 17.1594C-0.122085 14.2307 3.56775 11.1033 3.56775 11.1033L11.0732 3.59576C11.0732 3.59576 11.9136 2.89395 11.284 2.26218C10.6515 1.63113 9.95117 2.47301 9.95117 2.47301L1.3387 11.0855C1.3387 11.0855 -1.91233 14.651 1.71819 18.2808C5.3487 21.9127 8.91633 18.6617 8.91633 18.6617L20.7534 6.8232C20.7534 6.8232 23.1218 4.21108 20.2981 1.386C17.4745 -1.43908 14.8617 0.929327 14.8617 0.929327L4.6762 11.1134C4.6762 11.1134 2.06766 13.2352 4.43464 15.6008C6.80162 17.9692 8.88488 15.322 8.88488 15.322L16.1245 8.0853Z" fill="#2B2859"/>
</svg>
