<svg width="20" height="20" viewBox="0 0 20 20" fill="none" xmlns="http://www.w3.org/2000/svg">
<path fill-rule="evenodd" clip-rule="evenodd" d="M2.5 0H17.5C18.8788 0 20 1.12122 20 2.5V17.5C20 18.8788 18.8788 20 17.5 20H2.5C1.12122 20 0 18.8788 0 17.5V2.5C0 1.12122 1.12122 0 2.5 0ZM17.5 1.66667H2.5C2.04041 1.66667 1.66667 2.04041 1.66667 2.5V12.9883L5.24414 9.41081C5.56966 9.08549 6.097 9.08549 6.42253 9.41081L8.54167 11.5299L14.4108 5.66081C14.7363 5.33549 15.2637 5.33549 15.5892 5.66081L18.3333 8.40495V2.5C18.3333 2.04041 17.9596 1.66667 17.5 1.66667ZM2.5 18.3333H17.5C17.9596 18.3333 18.3333 17.9596 18.3333 17.5V10.7621L15 7.42879L9.72005 12.7083L11.8392 14.8275C12.1645 15.153 12.1645 15.6803 11.8392 16.0059C11.6762 16.1688 11.4634 16.25 11.25 16.25C11.0366 16.25 10.8238 16.1688 10.6608 16.0055L5.83333 11.1784L1.66667 15.3451V17.5C1.66667 17.9596 2.04041 18.3333 2.5 18.3333ZM4.99995 6.66646C5.92036 6.66646 6.66662 5.92021 6.66662 4.9998C6.66662 4.07939 5.92036 3.33313 4.99995 3.33313C4.07954 3.33313 3.33328 4.07939 3.33328 4.9998C3.33328 5.92021 4.07954 6.66646 4.99995 6.66646Z" fill="#2B2859"/>
</svg>
