<svg width="20" height="20" viewBox="0 0 20 20" fill="none" xmlns="http://www.w3.org/2000/svg">
<path fill-rule="evenodd" clip-rule="evenodd" d="M0 10C0 4.47715 4.47715 0 10 0C15.5229 0 20 4.47715 20 10C20 15.5229 15.5229 20 10 20C4.47715 20 0 15.5229 0 10ZM1.25 10C1.25 14.8325 5.1675 18.75 10 18.75C14.8325 18.75 18.75 14.8325 18.75 10C18.75 5.1675 14.8325 1.25 10 1.25C5.1675 1.25 1.25 5.1675 1.25 10ZM8.125 6.875C8.125 7.56536 7.56536 8.125 6.875 8.125C6.18464 8.125 5.625 7.56536 5.625 6.875C5.625 6.18464 6.18464 5.625 6.875 5.625C7.56536 5.625 8.125 6.18464 8.125 6.875ZM13.125 8.125C13.8154 8.125 14.375 7.56536 14.375 6.875C14.375 6.18464 13.8154 5.625 13.125 5.625C12.4346 5.625 11.875 6.18464 11.875 6.875C11.875 7.56536 12.4346 8.125 13.125 8.125ZM10 14.375C12.4163 14.375 14.375 12.4163 14.375 10H15.625C15.625 13.1066 13.1066 15.625 10 15.625C6.8934 15.625 4.375 13.1066 4.375 10H5.625C5.625 12.4163 7.58375 14.375 10 14.375Z" fill="#2B2859"/>
</svg>
